<?xml version="1.0" encoding="utf-8"?>
<!-- Generator: Adobe Illustrator 23.0.3, SVG Export Plug-In . SVG Version: 6.00 Build 0)  -->
<svg version="1.1" baseProfile="tiny" id="Calque_1"
	 xmlns="http://www.w3.org/2000/svg" xmlns:xlink="http://www.w3.org/1999/xlink" x="0px" y="0px" viewBox="0 0 50 50"
	 xml:space="preserve">
<image width="209" height="209" xlink:href="807CE028.png"  transform="matrix(0.24 0 0 0.24 -0.1518 -6.750000e-02)">
</image>
<path fill="#FFFFFF" d="M8.9,26.3c-0.3-0.3-0.4-0.6-0.4-0.9c0-0.3,0.1-0.6,0.4-0.9l1.8-1.8c0.5-0.5,1.3-0.5,1.8,0l0.1,0.1l7,7.5
	c0.3,0.3,0.6,0.3,0.9,0l17-17.6h0.1l0,0c0.5-0.5,1.3-0.5,1.8,0l1.8,1.8c0.5,0.5,0.5,1.3,0,1.8l0,0L20.8,37.3
	c-0.3,0.3-0.5,0.4-0.9,0.4s-0.6-0.1-0.9-0.4L9.1,26.6C9.1,26.6,8.9,26.3,8.9,26.3z"/>
</svg>
