<?xml version="1.0" encoding="utf-8"?>
<!-- Generator: Adobe Illustrator 23.0.3, SVG Export Plug-In . SVG Version: 6.00 Build 0)  -->
<svg version="1.1" baseProfile="tiny" id="Calque_1"
	 xmlns="http://www.w3.org/2000/svg" xmlns:xlink="http://www.w3.org/1999/xlink" x="0px" y="0px" viewBox="0 0 50 50"
	 xml:space="preserve">
<image width="209" height="209" xlink:href="E0F9FC77.png"  transform="matrix(0.24 0 0 0.24 -0.1518 -6.750000e-02)">
</image>
<g>
	<path fill="#FFFFFF" stroke="#FFFFFF" stroke-miterlimit="10" d="M12.8,16.1c-0.4-0.4-0.5-0.7-0.5-1c0-0.3,0.3-0.7,0.8-1.2l0.3-0.3
		c1.1-1.1,2-1.4,2.7-0.7l8.9,8.9l8.9-8.9c0.7-0.7,1.5-0.5,2.5,0.5l0.3,0.3c1,1,1.2,1.8,0.5,2.5L28.4,25l8.9,8.9
		c0.7,0.7,0.5,1.5-0.5,2.5l-0.3,0.3c-1,1-1.8,1.2-2.5,0.5l-8.9-8.9l-8.9,8.9c-0.7,0.7-1.5,0.5-2.5-0.5l-0.3-0.3
		c-1-1-1.2-1.8-0.5-2.5l8.9-8.9L12.8,16.1z"/>
</g>
</svg>
