<?xml version="1.0" encoding="utf-8"?>
<!-- Generator: Adobe Illustrator 21.1.0, SVG Export Plug-In . SVG Version: 6.00 Build 0)  -->
<svg version="1.1" baseProfile="tiny" id="Calque_1"
	 xmlns="http://www.w3.org/2000/svg" xmlns:xlink="http://www.w3.org/1999/xlink" x="0px" y="0px" viewBox="0 0 141.7 169.9"
	 overflow="scroll" xml:space="preserve">
<path fill="#FFFFFF" d="M124.9,0.2h-108c-9.3,0-16.9,7.6-16.9,17v113.5c0,9.3,7.6,17,16.9,17h31.6L70.8,170l22.4-22.4h31.7
	c9.3,0,16.9-7.6,16.9-17V17.1C141.8,7.8,134.2,0.2,124.9,0.2z M106.4,85.3l-32.3,31.1c-0.6,0.6-1.4,0.9-2.3,0.9s-1.7-0.3-2.3-0.9
	L37.3,85.2c-0.3-0.3-0.8-0.7-1.4-1.3c-0.6-0.6-1.6-1.8-2.9-3.4c-1.3-1.6-2.5-3.3-3.5-5c-1-1.7-2-3.8-2.8-6.3
	c-0.8-2.5-1.2-4.8-1.2-7.1c0-7.6,2.2-13.5,6.6-17.8c4.4-4.3,10.4-6.4,18.2-6.4c2.1,0,4.3,0.4,6.6,1.1c2.2,0.7,4.3,1.7,6.2,3
	c1.9,1.3,3.6,2.4,4.9,3.5c1.4,1.1,2.7,2.3,3.9,3.5c1.2-1.2,2.6-2.4,3.9-3.5c1.4-1.1,3-2.3,4.9-3.5c1.9-1.3,4-2.3,6.2-3
	c2.2-0.7,4.4-1.1,6.6-1.1c7.7,0,13.8,2.1,18.2,6.4c4.4,4.3,6.6,10.2,6.6,17.8C118.3,69.6,114.3,77.4,106.4,85.3z"/>
</svg>
