<?xml version="1.0" encoding="utf-8"?>
<!-- Generator: Adobe Illustrator 21.1.0, SVG Export Plug-In . SVG Version: 6.00 Build 0)  -->
<svg version="1.1" baseProfile="tiny" id="Calque_1"
	 xmlns="http://www.w3.org/2000/svg" xmlns:xlink="http://www.w3.org/1999/xlink" x="0px" y="0px" viewBox="0 0 141.7 169.9"
	 overflow="scroll" xml:space="preserve">
<path fill="#FFFFFF" d="M124.8,0H16.9C7.6,0,0,7.7,0,17v113.5c0,9.3,7.6,17,16.9,17h31.5l22.3,22.4l22.3-22.4h31.7
	c9.3,0,16.9-7.6,16.9-17V17C141.7,7.7,134.1,0,124.8,0z M70.6,36.2c11.8,0,21.3,9.6,21.3,21.4S82.3,79,70.6,79s-21.3-9.6-21.3-21.4
	S58.8,36.2,70.6,36.2z M24.4,110.6c0,0,5.2-23.5,46-23.5s48.2,23.6,48.2,23.6L24.4,110.6z"/>
</svg>
