<?xml version="1.0" encoding="utf-8"?>
<!-- Generator: Adobe Illustrator 23.0.3, SVG Export Plug-In . SVG Version: 6.00 Build 0)  -->
<svg version="1.1" baseProfile="tiny" id="Capa_1" xmlns="http://www.w3.org/2000/svg" xmlns:xlink="http://www.w3.org/1999/xlink"
	 x="0px" y="0px" viewBox="0 0 100 100" xml:space="preserve">
<linearGradient id="SVGID_1_" gradientUnits="userSpaceOnUse" x1="50" y1="100" x2="50" y2="0">
	<stop  offset="0" style="stop-color:#99AFD8"/>
	<stop  offset="1" style="stop-color:#977AC3"/>
</linearGradient>
<circle fill="url(#SVGID_1_)" cx="50" cy="50" r="50"/>
<g>
	<path fill="#FFFFFF" d="M57.7,73.6H30.8c-2.4,0-4.4-2-4.4-4.4V45.7c0-1.3,0.6-2.6,1.7-3.5L47.8,27c1.4-0.8,3.1-0.8,4.4,0l19.1,14.8
		L52.2,56.2c-1.4,0.8-3.1,0.8-4.5,0l-13-9.7c-1-0.7-2.3-0.5-3.1,0.4c-0.7,1-0.5,2.3,0.4,3.1l13,9.8c0.1,0,0.1,0.1,0.2,0.1
		c1.4,0.9,3,1.3,4.6,1.3c1.6,0,3.2-0.4,4.6-1.3c0.1,0,0.1-0.1,0.2-0.1l18.8-14.2c0,0.1,0,0.1,0,0.2v4.5c0,1.2,1,2.2,2.2,2.2
		s2.2-1,2.2-2.2v-4.5c0-1.5-0.4-3.1-1.2-4.4c-0.1-0.3-0.2-0.5-0.4-0.7c-0.1-0.2-0.3-0.3-0.4-0.4c-0.4-0.5-0.9-1-1.4-1.4L54.8,23.5
		c-0.1,0-0.1-0.1-0.2-0.1c-2.8-1.8-6.4-1.8-9.2,0c-0.1,0-0.1,0.1-0.2,0.1L25.4,38.8C23.3,40.4,22,43,22,45.7v23.6
		c0,4.8,3.9,8.7,8.7,8.7h26.9c1.2,0,2.2-1,2.2-2.2C59.8,74.6,58.9,73.6,57.7,73.6z"/>
	<path fill="#FFFFFF" d="M77.4,63.9l-6.5-6.4c-1.3-1.3-3.3-1.3-4.6,0l-6.5,6.4c-0.9,0.9-0.9,2.2,0,3.1c0.9,0.9,2.2,0.9,3.1,0
		l3.5-3.5v12.3c0,1.2,1,2.2,2.2,2.2c1.2,0,2.2-1,2.2-2.2V63.5l3.5,3.5c0.4,0.4,1,0.6,1.5,0.6c0.6,0,1.1-0.2,1.5-0.6
		C78.2,66.1,78.2,64.8,77.4,63.9z"/>
</g>
</svg>
