<?xml version="1.0" encoding="utf-8"?>
<!-- Generator: Adobe Illustrator 23.0.3, SVG Export Plug-In . SVG Version: 6.00 Build 0)  -->
<svg version="1.1" baseProfile="tiny" id="Layer_1" xmlns="http://www.w3.org/2000/svg" xmlns:xlink="http://www.w3.org/1999/xlink"
	 x="0px" y="0px" viewBox="0 0 43 43" xml:space="preserve">
<g>
	<linearGradient id="SVGID_1_" gradientUnits="userSpaceOnUse" x1="22.7722" y1="25.4178" x2="22.7722" y2="17.1991">
		<stop  offset="0" style="stop-color:#FEB178"/>
		<stop  offset="1" style="stop-color:#ED8975"/>
	</linearGradient>
	<polygon fill="url(#SVGID_1_)" points="19.7,25.4 25.9,21.3 19.7,17.2 	"/>
	<linearGradient id="SVGID_2_" gradientUnits="userSpaceOnUse" x1="21.5" y1="43" x2="21.5" y2="-9.094947e-13">
		<stop  offset="0" style="stop-color:#FEB178"/>
		<stop  offset="1" style="stop-color:#ED8975"/>
	</linearGradient>
	<path fill="url(#SVGID_2_)" d="M21.5,0C9.6,0,0,9.6,0,21.5S9.6,43,21.5,43c7.9,0,14.8-4.3,18.5-10.6c0,0,0,0,0,0
		c0.1-0.1,0.1-0.2,0.2-0.3c0,0,0,0,0,0c0.2-0.3,0.4-0.7,0.5-1c0,0,0,0,0-0.1c0.1-0.1,0.1-0.2,0.2-0.3c0,0,0,0,0,0
		c0.2-0.3,0.3-0.7,0.4-1c0,0,0-0.1,0-0.1c0-0.1,0.1-0.2,0.1-0.3c0,0,0-0.1,0-0.1c0.1-0.3,0.2-0.7,0.3-1c0,0,0-0.1,0-0.1
		c0-0.1,0.1-0.2,0.1-0.3c0,0,0-0.1,0-0.1c0.1-0.2,0.1-0.4,0.2-0.7c0,0,0,0,0,0c0-0.1,0.1-0.2,0.1-0.3c0,0,0-0.1,0-0.1
		c0-0.1,0-0.2,0.1-0.3c0,0,0-0.1,0-0.1c0.3-1.5,0.5-3,0.5-4.6C43,9.6,33.4,0,21.5,0z M32.8,17.4v8.8c0,1.8-1.5,3.3-3.3,3.3H14.2
		c-1.8,0-3.3-1.5-3.3-3.3v-8.8c0-1.8,1.5-3.3,3.3-3.3h15.3C31.3,14.1,32.8,15.5,32.8,17.4L32.8,17.4z"/>
</g>
</svg>
