<?xml version="1.0" encoding="utf-8"?>
<!-- Generator: Adobe Illustrator 23.0.3, SVG Export Plug-In . SVG Version: 6.00 Build 0)  -->
<svg version="1.1" id="Calque_1" xmlns="http://www.w3.org/2000/svg" xmlns:xlink="http://www.w3.org/1999/xlink" x="0px" y="0px"
	 viewBox="0 0 87.9 23.5" style="enable-background:new 0 0 87.9 23.5;" xml:space="preserve">
<style type="text/css">
	.st0{fill:#FFFFFF;}
</style>
<path class="st0" d="M10.5,0H3.7C3.2,0,2.8,0.3,2.8,0.8L0,18.3c0,0.3,0.2,0.6,0.5,0.7h0.1h3.3c0.5,0,0.9-0.3,0.9-0.8l0.7-4.7
	C5.6,13,6,12.7,6.4,12.7h2.2c4.5,0,7.1-2.2,7.8-6.5c0.3-1.9,0-3.4-0.9-4.4C14.5,0.7,12.8,0,10.5,0z M11.3,6.5C10.9,9,9.1,9,7.2,9h-1
	l0.7-4.6c0-0.3,0.3-0.5,0.6-0.5H8c1.2,0,2.4,0,3,0.7C11.3,5,11.4,5.6,11.3,6.5z M31,6.4h-3.3c-0.3,0-0.5,0.2-0.6,0.5L27,7.8
	l-0.2-0.3c-0.7-1-2.3-1.4-3.9-1.4c-3.6,0-6.7,2.7-7.3,6.6c-0.3,1.9,0.1,3.8,1.2,5c1,1.2,2.4,1.7,4.1,1.7c2.9,0,4.5-1.9,4.5-1.9
	l-0.1,0.9c0,0.3,0.2,0.6,0.5,0.7h0.1h2.9c0.5,0,0.9-0.3,0.9-0.8l1.8-11.2C31.6,6.7,31.4,6.4,31,6.4L31,6.4z M26.4,12.7
	c-0.3,1.9-1.8,3.1-3.7,3.1c-1,0-1.7-0.3-2.2-0.9s-0.7-1.4-0.5-2.3c0.3-1.9,1.8-3.2,3.7-3.2c0.9,0,1.7,0.3,2.2,0.9
	C26.3,11,26.5,11.8,26.4,12.7z M48.4,6.4h-3.3c-0.3,0-0.6,0.2-0.8,0.4l-4.5,6.7l-1.9-6.4c-0.1-0.4-0.5-0.7-0.9-0.7h-3.2
	c-0.3,0-0.6,0.3-0.6,0.6c0,0.1,0,0.1,0,0.2l3.6,10.6l-3.4,4.8c-0.2,0.3-0.1,0.6,0.1,0.8c0.1,0.1,0.2,0.1,0.3,0.1h3.3
	c0.3,0,0.6-0.2,0.8-0.4l11-15.8C49.1,7,49,6.7,48.8,6.5C48.6,6.4,48.5,6.4,48.4,6.4L48.4,6.4z"/>
<path class="st0" d="M59.3,0h-6.8c-0.5,0-0.9,0.3-0.9,0.8l-2.8,17.5c0,0.3,0.2,0.6,0.5,0.7h0.1h3.5c0.3,0,0.6-0.2,0.7-0.6l0.8-5
	c0.1-0.5,0.5-0.8,0.9-0.8h2.2c4.5,0,7.1-2.2,7.8-6.5c0.3-1.9,0-3.4-0.9-4.4C63.3,0.7,61.6,0,59.3,0z M60.1,6.5C59.7,9,57.9,9,56,9
	h-1l0.7-4.6c0-0.3,0.3-0.5,0.6-0.5h0.5c1.2,0,2.4,0,3,0.7C60.1,5,60.2,5.6,60.1,6.5z M79.7,6.4h-3.3c-0.3,0-0.5,0.2-0.6,0.5
	l-0.1,0.9l-0.2-0.3c-0.7-1-2.3-1.4-3.9-1.4c-3.6,0-6.7,2.7-7.3,6.6c-0.3,1.9,0.1,3.8,1.2,5c1,1.2,2.4,1.7,4.1,1.7
	c2.9,0,4.5-1.9,4.5-1.9L74,18.4c0,0.3,0.2,0.6,0.5,0.7h0.1h2.9c0.5,0,0.9-0.3,0.9-0.8l1.8-11.2C80.3,6.7,80.1,6.4,79.7,6.4
	C79.8,6.4,79.8,6.4,79.7,6.4z M75.2,12.7c-0.3,1.9-1.8,3.1-3.7,3.1c-0.9,0-1.7-0.3-2.2-0.9s-0.7-1.4-0.5-2.3
	c0.3-1.9,1.8-3.2,3.7-3.2c0.9,0,1.7,0.3,2.2,0.9C75.1,11,75.3,11.8,75.2,12.7z M83.6,0.5l-2.8,17.9c0,0.3,0.2,0.6,0.5,0.7h0.1h2.8
	c0.5,0,0.9-0.3,0.9-0.8l2.8-17.5c0-0.3-0.2-0.6-0.5-0.7h-0.1h-3.2C83.9,0,83.6,0.3,83.6,0.5z"/>
</svg>
