<?xml version="1.0" encoding="utf-8"?>
<!-- Generator: Adobe Illustrator 23.0.3, SVG Export Plug-In . SVG Version: 6.00 Build 0)  -->
<svg version="1.1" id="Calque_1" xmlns="http://www.w3.org/2000/svg" xmlns:xlink="http://www.w3.org/1999/xlink" x="0px" y="0px"
	 viewBox="0 0 2051.5 845" style="enable-background:new 0 0 2051.5 845;" xml:space="preserve">
<style type="text/css">
	.st0{fill:#FFFFFF;}
</style>
<path class="st0" d="M2051.5,204.3c0-112.7-91.3-204.1-203.9-204.2v0h-743.2v408.8h743.2v-0.2C1960.2,408.4,2051.5,317,2051.5,204.3
	z"/>
<path class="st0" d="M2051.5,637.8c0-112.7-91.3-204.1-203.9-204.2v0h-743.2v408.8h743.2v-0.3
	C1960.2,841.9,2051.5,750.5,2051.5,637.8z"/>
<path class="st0" d="M544.3,433.5v-24.8H1090v-34.4C1090,169.1,923.7,2.7,718.4,2.7H371.6C166.4,2.7,0,169.1,0,374.3v99.1
	C0,678.6,166.4,845,371.6,845h346.8c205.2,0,371.6-166.4,371.6-371.6v-39.9H544.3z"/>
</svg>
