<?xml version="1.0" encoding="utf-8"?>
<!-- Generator: Adobe Illustrator 23.0.3, SVG Export Plug-In . SVG Version: 6.00 Build 0)  -->
<svg version="1.1" id="Layer_1" xmlns="http://www.w3.org/2000/svg" xmlns:xlink="http://www.w3.org/1999/xlink" x="0px" y="0px"
	 viewBox="0 0 43 43" style="enable-background:new 0 0 43 43;" xml:space="preserve">
<style type="text/css">
	.st0{fill:url(#SVGID_1_);}
	.st1{fill:url(#SVGID_2_);}
	.st2{fill:url(#SVGID_3_);}
	.st3{fill:url(#SVGID_4_);}
</style>
<g>
	<g>
		<g>
			<linearGradient id="SVGID_1_" gradientUnits="userSpaceOnUse" x1="21.5014" y1="25.8036" x2="21.5014" y2="17.1954">
				<stop  offset="0" style="stop-color:#FEB178"/>
				<stop  offset="1" style="stop-color:#ED8975"/>
			</linearGradient>
			<path class="st0" d="M21.5,25.8c2.4,0,4.3-1.9,4.3-4.3c0-0.9-0.3-1.8-0.8-2.5c-0.8-1.1-2.1-1.8-3.5-1.8c-1.4,0-2.7,0.7-3.5,1.8
				c-0.5,0.7-0.8,1.6-0.8,2.5C17.2,23.9,19.1,25.8,21.5,25.8z"/>
			<linearGradient id="SVGID_2_" gradientUnits="userSpaceOnUse" x1="28.8256" y1="16.248" x2="28.8256" y2="12.0895">
				<stop  offset="0" style="stop-color:#FEB178"/>
				<stop  offset="1" style="stop-color:#ED8975"/>
			</linearGradient>
			<polygon class="st1" points="30.9,16.2 30.9,12.6 30.9,12.1 30.4,12.1 26.8,12.1 26.8,16.2 			"/>
			<linearGradient id="SVGID_3_" gradientUnits="userSpaceOnUse" x1="21.5005" y1="42.999" x2="21.5005" y2="-9.094947e-13">
				<stop  offset="0" style="stop-color:#FEB178"/>
				<stop  offset="1" style="stop-color:#ED8975"/>
			</linearGradient>
			<path class="st2" d="M21.5,0C9.6,0,0,9.6,0,21.5C0,33.4,9.6,43,21.5,43C33.4,43,43,33.4,43,21.5C43,9.6,33.4,0,21.5,0z M33.7,19
				v10c0,2.6-2.1,4.7-4.7,4.7H14c-2.6,0-4.7-2.1-4.7-4.7V19v-5c0-2.6,2.1-4.7,4.7-4.7h15c2.6,0,4.7,2.1,4.7,4.7V19z"/>
			<linearGradient id="SVGID_4_" gradientUnits="userSpaceOnUse" x1="21.4992" y1="31.3434" x2="21.4992" y2="18.9907">
				<stop  offset="0" style="stop-color:#FEB178"/>
				<stop  offset="1" style="stop-color:#ED8975"/>
			</linearGradient>
			<path class="st3" d="M28.2,21.5c0,3.7-3,6.7-6.7,6.7s-6.7-3-6.7-6.7c0-0.9,0.2-1.7,0.5-2.5h-3.7v10c0,1.3,1.1,2.3,2.3,2.3h15
				c1.3,0,2.3-1,2.3-2.3V19h-3.7C28,19.8,28.2,20.6,28.2,21.5z"/>
		</g>
	</g>
</g>
</svg>
