<?xml version="1.0" encoding="utf-8"?>
<!-- Generator: Adobe Illustrator 23.0.3, SVG Export Plug-In . SVG Version: 6.00 Build 0)  -->
<svg version="1.1"
	 id="Calque_1" xmlns:cc="http://creativecommons.org/ns#" xmlns:dc="http://purl.org/dc/elements/1.1/" xmlns:rdf="http://www.w3.org/1999/02/22-rdf-syntax-ns#"
	 xmlns="http://www.w3.org/2000/svg" xmlns:xlink="http://www.w3.org/1999/xlink" x="0px" y="0px" viewBox="0 0 200 155.6"
	 style="enable-background:new 0 0 200 155.6;" xml:space="preserve">
<style type="text/css">
	.st0{fill:#FFFFFF;}
</style>
<g transform="matrix(1.25 0 0 -1.25 1102.5 727.74)">
	<path class="st0" d="M-725.3,459.5v-0.3h0.3c0.1,0,0.1,0,0.2,0l0.1,0.1c0,0.1,0,0.1-0.1,0.1c0,0-0.1,0-0.2,0L-725.3,459.5
		L-725.3,459.5z M-725,459.7c0.2,0,0.3,0,0.4-0.1c0.1-0.1,0.1-0.2,0.1-0.3c0-0.1,0-0.2-0.1-0.2c-0.1-0.1-0.2-0.1-0.3-0.1l0.4-0.5
		h-0.3l-0.4,0.5h-0.1v-0.5h-0.3v1.2H-725z M-725,458.1c0.1,0,0.3,0,0.4,0.1c0.1,0.1,0.2,0.1,0.3,0.2s0.2,0.2,0.2,0.3
		c0.1,0.1,0.1,0.3,0.1,0.4s0,0.3-0.1,0.4s-0.1,0.2-0.2,0.3c-0.1,0.1-0.2,0.2-0.3,0.2c-0.1,0.1-0.3,0.1-0.4,0.1s-0.3,0-0.4-0.1
		c-0.1-0.1-0.2-0.1-0.3-0.2s-0.2-0.2-0.2-0.3c-0.1-0.1-0.1-0.3-0.1-0.4s0-0.3,0.1-0.4s0.1-0.2,0.2-0.3c0.1-0.1,0.2-0.2,0.3-0.2
		C-725.3,458.1-725.2,458.1-725,458.1 M-725,460.4c0.2,0,0.4,0,0.5-0.1c0.2-0.1,0.3-0.2,0.4-0.3c0.1-0.1,0.2-0.3,0.3-0.4
		c0.1-0.2,0.1-0.3,0.1-0.5s0-0.3-0.1-0.5s-0.2-0.3-0.3-0.4s-0.3-0.2-0.4-0.3c-0.2-0.1-0.3-0.1-0.5-0.1s-0.4,0-0.5,0.1
		c-0.2,0.1-0.3,0.2-0.4,0.3c-0.1,0.1-0.2,0.3-0.3,0.4c-0.1,0.2-0.1,0.3-0.1,0.5s0,0.3,0.1,0.5s0.2,0.3,0.3,0.4s0.3,0.2,0.4,0.3
		C-725.4,460.4-725.2,460.4-725,460.4 M-847.5,465.1c0,2.3,1.5,4.2,4,4.2c2.4,0,4-1.8,4-4.2c0-2.4-1.6-4.2-4-4.2
		C-846,460.9-847.5,462.8-847.5,465.1 M-836.9,465.1v6.6h-2.9V470c-0.9,1.2-2.3,1.9-4.1,1.9c-3.7,0-6.6-2.9-6.6-6.9s2.9-6.9,6.6-6.9
		c1.9,0,3.2,0.7,4.1,1.9v-1.6h2.9V465.1z M-740.4,465.1c0,2.3,1.5,4.2,4,4.2c2.4,0,4-1.8,4-4.2c0-2.4-1.6-4.2-4-4.2
		C-738.9,460.9-740.4,462.8-740.4,465.1 M-729.8,465.1v11.8h-2.9V470c-0.9,1.2-2.3,1.9-4.1,1.9c-3.7,0-6.6-2.9-6.6-6.9
		s2.9-6.9,6.6-6.9c1.9,0,3.2,0.7,4.1,1.9v-1.6h2.9V465.1z M-801.5,469.4c1.8,0,3-1.2,3.3-3.2h-6.8
		C-804.6,468.1-803.5,469.4-801.5,469.4 M-801.4,472c-3.8,0-6.5-2.8-6.5-6.9c0-4.2,2.8-6.9,6.7-6.9c2,0,3.8,0.5,5.4,1.8l-1.4,2.1
		c-1.1-0.9-2.5-1.4-3.8-1.4c-1.8,0-3.5,0.9-3.9,3.2h9.7c0,0.4,0.1,0.7,0.1,1.1C-795.2,469.2-797.7,472-801.4,472 M-766.9,465.1
		c0,2.3,1.5,4.2,4,4.2c2.4,0,4-1.8,4-4.2c0-2.4-1.6-4.2-4-4.2C-765.4,460.9-766.9,462.8-766.9,465.1 M-756.3,465.1v6.6h-2.9V470
		c-0.9,1.2-2.3,1.9-4.1,1.9c-3.7,0-6.6-2.9-6.6-6.9s2.9-6.9,6.6-6.9c1.9,0,3.2,0.7,4.1,1.9v-1.6h2.9V465.1z M-783.1,465.1
		c0-4,2.8-6.9,7-6.9c2,0,3.3,0.4,4.7,1.6l-1.4,2.3c-1.1-0.8-2.2-1.2-3.4-1.2c-2.3,0-4,1.7-4,4.2s1.7,4.2,4,4.2
		c1.2,0,2.4-0.4,3.4-1.2l1.4,2.3c-1.4,1.1-2.7,1.6-4.7,1.6C-780.3,472-783.1,469-783.1,465.1 M-746.2,472c-1.6,0-2.7-0.8-3.5-1.9
		v1.6h-2.8v-13.1h2.9v7.4c0,2.2,0.9,3.4,2.8,3.4c0.6,0,1.2-0.1,1.8-0.3l0.9,2.7C-744.8,471.8-745.7,472-746.2,472 M-822.8,470.6
		c-1.4,0.9-3.3,1.4-5.4,1.4c-3.3,0-5.5-1.6-5.5-4.2c0-2.1,1.6-3.5,4.5-3.9l1.3-0.2c1.6-0.2,2.3-0.6,2.3-1.4c0-1-1-1.6-3-1.6
		s-3.4,0.6-4.4,1.4l-1.3-2.2c1.6-1.2,3.5-1.7,5.7-1.7c3.8,0,6,1.8,6,4.3c0,2.3-1.7,3.5-4.6,3.9l-1.3,0.2c-1.2,0.2-2.2,0.4-2.2,1.3
		c0,1,0.9,1.5,2.5,1.5c1.7,0,3.3-0.6,4.1-1.1L-822.8,470.6z M-785.9,472c-1.6,0-2.7-0.8-3.5-1.9v1.6h-2.8v-13.1h2.9v7.4
		c0,2.2,0.9,3.4,2.8,3.4c0.6,0,1.2-0.1,1.8-0.3l0.9,2.7C-784.5,471.8-785.4,472-785.9,472 M-810.3,471.6h-4.7v4h-2.9v-4h-2.7V469
		h2.7v-6c0-3,1.2-4.9,4.6-4.9c1.2,0,2.7,0.4,3.6,1l-0.8,2.4c-0.9-0.5-1.8-0.7-2.5-0.7c-1.4,0-1.9,0.9-1.9,2.2v5.9h4.7L-810.3,471.6
		L-810.3,471.6z M-853,458.5v8.2c0,3.1-2,5.2-5.2,5.2c-1.7,0-3.4-0.5-4.6-2.3c-0.9,1.5-2.3,2.3-4.3,2.3c-1.4,0-2.8-0.4-3.8-1.9v1.6
		h-2.9v-13.1h2.9v7.3c0,2.3,1.3,3.5,3.2,3.5s2.9-1.2,2.9-3.5v-7.3h2.9v7.3c0,2.3,1.3,3.5,3.2,3.5s2.9-1.2,2.9-3.5v-7.3L-853,458.5
		L-853,458.5z"/>
</g>
<path class="st0" d="M127.1,110.4H73V13.2h54.1V110.4z"/>
<g transform="matrix(1.25 0 0 -1.25 1064.5 698.59)">
	<path class="st0" d="M-790.4,509.5c0,15.8,7.4,29.8,18.9,38.9c-8.4,6.6-19,10.6-30.6,10.6c-27.3,0-49.4-22.1-49.4-49.4
		s22.1-49.4,49.4-49.4c11.5,0,22.1,4,30.6,10.6C-783,479.6-790.4,493.7-790.4,509.5"/>
</g>
<g transform="matrix(1.25 0 0 -1.25 1103.8 698.59)">
	<path class="st0" d="M-723,509.5c0-27.3-22.1-49.4-49.4-49.4c-11.5,0-22.1,4-30.6,10.6c11.5,9.1,18.9,23.1,18.9,38.9
		c0,15.8-7.4,29.8-18.9,38.9c8.4,6.6,19,10.6,30.6,10.6C-745.2,558.9-723,536.8-723,509.5"/>
</g>
</svg>
