<svg id="Calque_1" data-name="Calque 1" xmlns="http://www.w3.org/2000/svg" viewBox="0 0 65 65"><defs><style>.cls-1,.cls-2{fill:#9cb0d9;}.cls-2{fill-rule:evenodd;}</style></defs><title>Plan de travail 3 copie 3</title><path class="cls-1" d="M32.34,5A27.5,27.5,0,1,1,4.84,32.5,27.48,27.48,0,0,1,32.34,5m0-5a32.5,32.5,0,1,0,32.5,32.5A32.56,32.56,0,0,0,32.34,0Z"/><g id="Settings"><path class="cls-2" d="M49.66,31.06c0-.44-.66-.88-1.1-.88A3.7,3.7,0,0,1,46,23.7a1,1,0,0,0,0-1.21,16.26,16.26,0,0,0-2.75-2.75,1,1,0,0,0-1.32.11,4.11,4.11,0,0,1-4.29,1,3.86,3.86,0,0,1-2.31-3.74.89.89,0,0,0-.87-1,10.06,10.06,0,0,0-3.63,0,1,1,0,0,0-.88,1,3.71,3.71,0,0,1-2.31,3.63,3.92,3.92,0,0,1-4.18-1,.91.91,0,0,0-1.32-.11,10.69,10.69,0,0,0-2.74,2.75.78.78,0,0,0,.11,1.21,3.9,3.9,0,0,1,1,4.28,4,4,0,0,1-3.73,2.31,1,1,0,0,0-1,.88,22.49,22.49,0,0,0,0,3.85c0,.44.66.88,1.1.88a3.93,3.93,0,0,1,3.51,2.31,4,4,0,0,1-1,4.18,1,1,0,0,0-.11,1.31,12.75,12.75,0,0,0,2.74,2.75,1,1,0,0,0,1.32-.11,4.11,4.11,0,0,1,4.29-1A3.86,3.86,0,0,1,30,49a.9.9,0,0,0,.88,1,12,12,0,0,0,2,.11A10.67,10.67,0,0,0,34.71,50a1,1,0,0,0,.87-1,3.71,3.71,0,0,1,2.31-3.63,3.92,3.92,0,0,1,4.18,1,1,1,0,0,0,1.32.11,16.26,16.26,0,0,0,2.75-2.75A1,1,0,0,0,46,42.39a3.9,3.9,0,0,1-1-4.29,3.72,3.72,0,0,1,3.52-2.31h.22a1,1,0,0,0,1-.88C49.77,33.7,49.77,32.38,49.66,31.06Zm-16.93,7.7A5.72,5.72,0,1,1,38.44,33,5.9,5.9,0,0,1,32.73,38.76Z"/></g></svg>