<?xml version="1.0" encoding="utf-8"?>
<!-- Generator: Adobe Illustrator 23.0.3, SVG Export Plug-In . SVG Version: 6.00 Build 0)  -->
<svg version="1.1" id="Calque_1" xmlns="http://www.w3.org/2000/svg" xmlns:xlink="http://www.w3.org/1999/xlink" x="0px" y="0px"
	 viewBox="0 0 110 110" enable-background="new 0 0 110 110" xml:space="preserve">
<linearGradient id="SVGID_1_" gradientUnits="userSpaceOnUse" x1="55.0993" y1="128.7244" x2="55.0993" y2="18.7244" gradientTransform="matrix(1 0 0 1 0 -18.7244)">
	<stop  offset="0" style="stop-color:#99AED7"/>
	<stop  offset="1" style="stop-color:#947AB5"/>
</linearGradient>
<circle fill="url(#SVGID_1_)" cx="55.1" cy="55" r="55"/>
<g>
	<g>
		<path fill="#FFFFFF" d="M55.3,23C41.3,23,30,34.4,30,48.4v35.3c0,1.9,2.3,2.8,3.6,1.5l4.8-5l7,7.1c0.8,0.8,2.2,0.8,3,0l7-7.1
			l7,7.1c0.8,0.8,2.2,0.8,3,0l7-7.1l4.8,5c1.3,1.3,3.6,0.4,3.6-1.5V48.5C80.7,34.6,69.3,22.9,55.3,23z M44.8,56.8
			c-3.5,0-6.4-2.8-6.4-6.4c0-3.6,2.8-6.4,6.4-6.4s6.4,2.8,6.4,6.4C51.2,54,48.3,56.8,44.8,56.8z M65.9,56.8c-3.5,0-6.4-2.8-6.4-6.4
			c0-3.6,2.8-6.4,6.4-6.4s6.4,2.8,6.4,6.4C72.2,54,69.5,56.8,65.9,56.8z"/>
	</g>
</g>
</svg>
