<svg id="Calque_1" data-name="Calque 1" xmlns="http://www.w3.org/2000/svg" xmlns:xlink="http://www.w3.org/1999/xlink" viewBox="0 0 65 65"><defs><style>.cls-1{fill:url(#Dégradé_sans_nom_2);}.cls-2{fill:url(#Dégradé_sans_nom_2-2);}.cls-3{fill:url(#Dégradé_sans_nom_2-3);}</style><linearGradient id="Dégradé_sans_nom_2" x1="32.5" y1="65" x2="32.5" gradientUnits="userSpaceOnUse"><stop offset="0" stop-color="#f8b47b"/><stop offset="1" stop-color="#f39876"/></linearGradient><linearGradient id="Dégradé_sans_nom_2-2" x1="31.7" y1="28.3" x2="31.7" y2="22.94" xlink:href="#Dégradé_sans_nom_2"/><linearGradient id="Dégradé_sans_nom_2-3" x1="34.12" y1="50.9" x2="34.12" y2="14.79" xlink:href="#Dégradé_sans_nom_2"/></defs><title>Plan de travail 3</title><path class="cls-1" d="M32.5,5A27.5,27.5,0,1,1,5,32.5,27.48,27.48,0,0,1,32.5,5m0-5A32.5,32.5,0,1,0,65,32.5,32.56,32.56,0,0,0,32.5,0Z"/><path class="cls-2" d="M31.71,28.3A2.68,2.68,0,1,0,29,25.62,2.56,2.56,0,0,0,31.71,28.3Z"/><path class="cls-3" d="M23,46.24v3.61a1,1,0,0,0,1.05,1H38.11a1,1,0,0,0,1-1v-3.5h4A2.88,2.88,0,0,0,46,43.44v-5h2.33a1.17,1.17,0,0,0,1-1.74l-2.56-4.78A7.05,7.05,0,0,1,46,28.42h0A13.84,13.84,0,0,0,32.17,14.79,13.68,13.68,0,0,0,18.66,28.65a13.4,13.4,0,0,0,1.52,6.06A26.37,26.37,0,0,1,23,46.24Zm1.52-21.08a.64.64,0,0,1,.35-.59L26.35,24l.35-.35h0a.34.34,0,0,0,0-.46l-.58-1.52c-.12-.23,0-.46.11-.7l.7-.7a.55.55,0,0,1,.7-.11l1.52.46a.34.34,0,0,0,.46,0h0l.35-.35.58-1.51a.65.65,0,0,1,.59-.35h.93a.65.65,0,0,1,.58.35l.7,1.51.35.35h0a.34.34,0,0,0,.46,0L35.67,20a.79.79,0,0,1,.7.12l.7.7a.55.55,0,0,1,.11.7l-.58,1.51a.35.35,0,0,0,0,.47h0l.35.35,1.51.58a.62.62,0,0,1,.35.58V26a.61.61,0,0,1-.35.58l-1.51.7c-.12.12-.23.24-.23.35h0a.35.35,0,0,0,0,.47l.58,1.51a.75.75,0,0,1-.12.7l-.7.7a.55.55,0,0,1-.69.12l-1.52-.59a.36.36,0,0,0-.46,0h0l-.35.35-.59,1.52a.64.64,0,0,1-.58.35h-.93a.64.64,0,0,1-.58-.35l-.59-1.52-.34-.35h0a.38.38,0,0,0-.47,0l-1.51.59a.78.78,0,0,1-.7-.12l-.94-.58a.55.55,0,0,1-.11-.7l.58-1.51a.35.35,0,0,0,0-.47h0l-.35-.35-1.51-.58a.63.63,0,0,1-.35-.58V25.16Z"/></svg>