<?xml version="1.0" encoding="utf-8"?>
<!-- Generator: Adobe Illustrator 23.0.3, SVG Export Plug-In . SVG Version: 6.00 Build 0)  -->
<svg version="1.1" id="Capa_1" xmlns="http://www.w3.org/2000/svg" xmlns:xlink="http://www.w3.org/1999/xlink" x="0px" y="0px"
	 viewBox="0 0 28 28" style="enable-background:new 0 0 28 28;" xml:space="preserve">
<style type="text/css">
	.st0{fill:url(#SVGID_1_);}
	.st1{fill:#FFFFFF;}
</style>
<linearGradient id="SVGID_1_" gradientUnits="userSpaceOnUse" x1="14" y1="46.7244" x2="14" y2="18.7244" gradientTransform="matrix(1 0 0 1 0 -18.7244)">
	<stop  offset="0" style="stop-color:#F8B37A"/>
	<stop  offset="1" style="stop-color:#F39775"/>
</linearGradient>
<circle class="st0" cx="14" cy="14" r="14"/>
<g>
	<g>
		<g>
			<path class="st1" d="M13.8,19.1c3.4,0,6.2-2.7,6.2-6.2s-2.7-6.2-6.2-6.2s-6.2,2.7-6.2,6.2S10.3,19.1,13.8,19.1z M16.2,12.9
				c0,1.3-1.1,2.5-2.5,2.5s-2.5-1.1-2.5-2.5s1.1-2.5,2.5-2.5S16.2,11.6,16.2,12.9z M8.8,13.2c-0.2,0-0.3-0.1-0.3-0.3
				c0-2.9,2.4-5.3,5.3-5.3c0.2,0,0.3,0.1,0.3,0.3S14,8.3,13.8,8.3c-2.6,0-4.7,2.1-4.7,4.7C9.1,13.1,9,13.2,8.8,13.2z"/>
			<path class="st1" d="M22.7,11.7c0-0.6-0.5-1.2-1.2-1.2c-0.6,0-1.2,0.5-1.2,1.2c0,0.6,0.5,1.2,1.2,1.2h0.1c0.3,6.5-2.1,7.8-2.6,8
				v-0.6H8.4v1.7H19v-0.6c0,0,3.6-0.7,3.2-8.9C22.5,12.4,22.7,12.1,22.7,11.7z"/>
		</g>
	</g>
</g>
</svg>
