<?xml version="1.0" encoding="utf-8"?>
<!-- Generator: Adobe Illustrator 23.0.3, SVG Export Plug-In . SVG Version: 6.00 Build 0)  -->
<svg version="1.1" id="Capa_1" xmlns="http://www.w3.org/2000/svg" xmlns:xlink="http://www.w3.org/1999/xlink" x="0px" y="0px"
	 viewBox="0 0 60 51.8" style="enable-background:new 0 0 60 51.8;" xml:space="preserve">
<style type="text/css">
	.st0{fill:url(#SVGID_1_);}
</style>
<g>
	<linearGradient id="SVGID_1_" gradientUnits="userSpaceOnUse" x1="0" y1="25.921" x2="60" y2="25.921">
		<stop  offset="0" style="stop-color:#99AED7"/>
		<stop  offset="1" style="stop-color:#947AB5"/>
	</linearGradient>
	<path class="st0" d="M60,16.6c0,15.1-30,35.3-30,35.3S0,32.5,0,16.6C0,5.2,7.4,0,16.6,0c4.2,0,8.1,1.6,11,4.2L20,15.3
		c-0.2,0.3-0.3,0.6-0.2,1c0.1,0.3,0.3,0.6,0.5,0.8l11.4,7.3l-5.2,6.3c-0.3,0.3-0.4,0.7-0.2,1.1l2.9,10.1c0.2,0.5,0.7,0.9,1.2,0.9
		c0.1,0,0.2,0,0.3,0c0.6-0.2,1.1-0.8,0.9-1.4l-1.8-9.2l7.5-7.5c0.3-0.3,0.4-0.6,0.4-1c0-0.4-0.2-0.7-0.5-0.9l-9.8-7.7L38,2.3
		c0.2-0.3,0.3-0.6,0.3-0.9c0-0.2-0.1-0.3-0.2-0.5C39.8,0.3,41.6,0,43.4,0C52.6,0,60,7.4,60,16.6z"/>
</g>
</svg>
