<?xml version="1.0" encoding="utf-8"?>
<!-- Generator: Adobe Illustrator 23.0.3, SVG Export Plug-In . SVG Version: 6.00 Build 0)  -->
<svg version="1.1" id="SHEEPI_-_Inscription_-_1920_2_xA0_Image_1_"
	 xmlns="http://www.w3.org/2000/svg" xmlns:xlink="http://www.w3.org/1999/xlink" x="0px" y="0px" viewBox="0 0 182.8 100.5"
	 style="enable-background:new 0 0 182.8 100.5;" xml:space="preserve">
<style type="text/css">
	.st0{fill:url(#SVGID_1_);}
	.st1{fill:url(#SVGID_2_);}
	.st2{fill:#CBE6FF;}
	.st3{fill:#FFD6FF;}
	.st4{fill:#FFFFFF;}
</style>
<g>
	
		<linearGradient id="SVGID_1_" gradientUnits="userSpaceOnUse" x1="90.0495" y1="2364.814" x2="90.0495" y2="2354.3887" gradientTransform="matrix(1 0 0 1 0 -2300.5256)">
		<stop  offset="0" style="stop-color:#F8B37A"/>
		<stop  offset="1" style="stop-color:#F39775"/>
	</linearGradient>
	<path class="st0" d="M89.9,53.8c-1.3,0-2.8,0.4-4.2,1.2c0,0.5,0,1.3,0,2.4c0,4.5,1.4,6.8,4.4,6.8c1.2,0,2.3-0.5,3.1-1.5
		c0.8-1,1.2-2.3,1.2-3.8s-0.4-2.8-1.2-3.7C92.3,54.3,91.3,53.8,89.9,53.8z"/>
	
		<linearGradient id="SVGID_2_" gradientUnits="userSpaceOnUse" x1="102.0498" y1="2400.9194" x2="102.0498" y2="2300.4016" gradientTransform="matrix(1 0 0 1 0 -2300.5256)">
		<stop  offset="0" style="stop-color:#F8B37A"/>
		<stop  offset="1" style="stop-color:#F39775"/>
	</linearGradient>
	<path class="st1" d="M168.6,18.7L155.9,4.4c-2.5-2.8-6.1-4.4-9.8-4.4c-3.6,0-7,1.4-9.5,4.1c-2.9-1-6.2-1.5-8.3-1.4
		c-4.1,0.4-13,4.5-12.6,8.7c0.4,4.1,9.8,6.7,13.9,6.3c0.7-0.1,1.7-0.2,2.6-0.5L121,26.8c-2.4-4.6-7.3-7.9-12.9-7.9
		c-2.4,0-4.6,0.6-6.6,1.5c-2.6-3.9-7.1-6.6-12.2-6.6c-5.2,0-9.7,2.7-12.3,6.8c-1.9-0.8-3.8-1.3-6-1.3c-5.7,0-10.5,3.2-12.9,7.8
		c-1.5-0.6-3.3-0.9-5.1-0.9c-8.1,0-14.6,6.5-14.6,14.6c0,0.9,0.1,2,0.3,2.9c-3.1,2.9-5,6.7-5,10.9c0,7.3,5.5,13.4,12.5,14.5
		c0.4,7.6,6.7,13.8,14.6,13.8c2,0,3.8-0.4,5.6-1.1l1.2,15.3c0.2,1.8,1.5,3.3,3.4,3.4c2.1,0.2,3.9-1.3,4.1-3.4l1.1-13.4
		c0.3-0.1,0.7-0.1,1-0.2c3.2,1.7,6.9,2.6,10.7,2.6c4.6,0,9-1.3,12.6-3.7c0.2,0.1,0.5,0.2,0.7,0.2l1.2,13.9c0.2,1.8,1.5,3.3,3.4,3.4
		c2.1,0.2,3.9-1.3,4.1-3.4l1.2-14.7c0.6-0.3,1.3-0.6,2-1c0.7,0.1,1.5,0.2,2.4,0.2c8.1,0,14.6-6.5,14.6-14.6c0-1.1-0.1-2.3-0.4-3.3
		c6.4-1.5,11.1-7.3,11.1-14.1c0-3.1-1-6-2.7-8.4l7.8-11.5l7.2,4.7c2.8,1.9,6.5,1.9,9.3,0l3.6-2.4c2.1-1.3,3.5-3.5,3.8-6
		C171,23.1,170.3,20.6,168.6,18.7z M101,64c-0.7,1.5-1.7,2.8-2.9,3.7c-2.4,1.8-5.1,2.6-8.2,2.6c-3.2,0-5.9-1-8.3-3
		c-1.2-1-2.2-2.4-2.9-4.2c-0.7-1.9-1-3.9-1-6.3c0-3.7,0.6-7,1.9-10c1.2-2.9,2.7-5.2,4.3-6.8c1.7-1.7,3.4-2.9,5.4-4
		c1.9-1,3.4-1.8,4.5-2.1c1.1-0.3,1.9-0.5,2.2-0.5c0.7,0,1.3,0.5,1.9,1.5s0.7,1.9,0.7,2.4c0,0.6,0,0.9-0.1,1s-0.3,0.2-0.5,0.3
		c-4,1.2-7.2,3.4-9.4,6.6c-0.7,1.1-1.3,2.3-1.9,3.6c1.5-0.8,3.1-1.3,4.5-1.3s2.7,0.2,3.8,0.6c1,0.4,2.2,0.9,3.2,1.8
		c1,0.8,2,2,2.7,3.4c0.7,1.5,1,3.2,1,5.2C102.1,60.7,101.7,62.5,101,64z M150.7,14.5c-1.5,0.1-2.9-1.1-3-2.7c-0.1-1.5,1-2.9,2.7-3
		c1.5-0.1,2.9,1.1,3,2.7C153.4,13.1,152.2,14.4,150.7,14.5z"/>
</g>
<g>
	<path class="st2" d="M13.4,17.6l3.2,7.7l8.3,0.7c0.6,0,0.8,0.8,0.4,1.1L19,32.6l1.9,8.1c0.1,0.6-0.5,1-1,0.7l-7.1-4.3l-7.1,4.3
		c-0.5,0.3-1.1-0.1-1-0.7l1.9-8.1l-6.3-5.5C-0.2,26.7,0,26,0.6,25.9l8.3-0.7l3.2-7.7C12.4,17,13.1,17,13.4,17.6z"/>
</g>
<g>
	<path class="st3" d="M169.5,69.7l3.6,8.4l9.1,0.8c0.6,0.1,0.9,0.8,0.4,1.3l-6.9,6l2.1,8.9c0.1,0.6-0.5,1.1-1.1,0.8l-7.8-4.7
		l-7.8,4.7c-0.5,0.3-1.2-0.2-1.1-0.8l2.1-8.9l-6.9-6c-0.5-0.4-0.2-1.2,0.4-1.3l9.1-0.8l3.6-8.4C168.4,69.1,169.2,69.1,169.5,69.7z"
		/>
</g>
<g>
	<path class="st2" d="M155.9,54.1l2,4.7l5.1,0.4c0.4,0,0.5,0.5,0.2,0.7l-3.9,3.4l1.2,5c0.1,0.3-0.3,0.6-0.6,0.4l-4.4-2.6l-4.4,2.6
		c-0.3,0.2-0.7-0.1-0.6-0.4l1.2-5l-3.9-3.4c-0.3-0.2-0.1-0.7,0.2-0.7l5.1-0.4l2-4.7C155.3,53.7,155.8,53.7,155.9,54.1z"/>
</g>
<g>
	<path class="st4" d="M29.1,80.6l2,4.7l5.1,0.4c0.4,0,0.5,0.5,0.2,0.7l-3.9,3.4l1.2,5c0.1,0.3-0.3,0.6-0.6,0.4l-4.4-2.6l-4.4,2.6
		c-0.3,0.2-0.7-0.1-0.6-0.4l1.2-5L21,86.5c-0.3-0.2-0.1-0.7,0.2-0.7l5.1-0.4l2-4.7C28.5,80.3,28.9,80.3,29.1,80.6z"/>
</g>
<g>
	<path class="st3" d="M34.1,2.4l2,4.7l5.1,0.4c0.4,0,0.5,0.5,0.2,0.7l-3.9,3.4l1.2,5c0.1,0.3-0.3,0.6-0.6,0.4l-4.4-2.6l-4.4,2.6
		c-0.3,0.2-0.7-0.1-0.6-0.4l1.2-5L26,8.3c-0.3-0.2-0.1-0.7,0.2-0.7l5.1-0.4l2-4.7C33.5,2.1,33.9,2.1,34.1,2.4z"/>
</g>
</svg>
