<?xml version="1.0" encoding="utf-8"?>
<!-- Generator: Adobe Illustrator 23.0.3, SVG Export Plug-In . SVG Version: 6.00 Build 0)  -->
<svg version="1.1" id="Calque_1" xmlns="http://www.w3.org/2000/svg" xmlns:xlink="http://www.w3.org/1999/xlink" x="0px" y="0px"
	 viewBox="0 0 130 70" style="enable-background:new 0 0 130 70;" xml:space="preserve">
<style type="text/css">
	.st0{fill:#1D1637;}
	.st1{enable-background:new    ;}
</style>
<path class="st0" d="M90.3,15.4l-8.5-9.6c-1.7-1.9-4.1-3-6.6-3c-2.4,0-4.7,1-6.3,2.7c-1.9-0.7-4.1-1.1-5.5-0.9
	c-2.8,0.3-8.7,3-8.4,5.8c0.2,2.8,6.6,4.5,9.3,4.2c0.5,0,1.1-0.2,1.7-0.4l-7.6,6.5c-1.6-3.1-4.9-5.3-8.7-5.3c-1.6,0-3.1,0.4-4.4,1.1
	c-1.7-2.6-4.7-4.4-8.1-4.4c-3.5,0-6.5,1.8-8.2,4.5c-1.2-0.6-2.6-0.9-4-0.9c-3.8,0-7,2.1-8.6,5.3c-1-0.4-2.2-0.6-3.4-0.6
	c-5.4,0-9.7,4.4-9.7,9.7c0,0.7,0.1,1.3,0.2,1.9c-2,1.8-3.2,4.3-3.2,7.2c0,4.9,3.6,9,8.4,9.6C9,53.9,13.2,58,18.4,58
	c1.3,0,2.6-0.3,3.7-0.7L23,67.5c0.1,1.2,1.1,2.2,2.3,2.3c1.4,0.1,2.6-0.9,2.7-2.3l0.8-8.9c0.2,0,0.5-0.1,0.7-0.1
	c2.1,1.1,4.6,1.8,7.2,1.8c3.1,0,6-0.9,8.4-2.5c0.2,0.1,0.3,0.1,0.5,0.2l0.8,9.3c0.1,1.2,1.1,2.2,2.3,2.3c1.4,0.1,2.6-0.9,2.7-2.3
	l0.8-9.8c0.4-0.2,0.9-0.4,1.3-0.7c0.5,0.1,1,0.1,1.6,0.1c5.4,0,9.7-4.4,9.7-9.7c0-0.8-0.1-1.5-0.3-2.2c4.3-1,7.5-4.9,7.5-9.5
	c0-2.1-0.7-4-1.8-5.6l5.3-7.7l4.9,3.2c1.9,1.2,4.3,1.3,6.2,0l2.4-1.6c1.4-0.9,2.3-2.4,2.6-4C91.9,18.3,91.4,16.6,90.3,15.4z
	 M51.3,37c-1.2,3.8-12.9,13.9-14.4,13.9S24,40.8,22.8,37c-1.3-4,0.9-8.2,4.8-9.5s8.1,0.8,9.4,4.7c1.3-3.9,5.5-6,9.4-4.7
	C50.4,28.8,52.6,33,51.3,37z M78.1,18.3c-0.8,0-1.4-0.6-1.4-1.4c0-1.2,1.4-2.9,1.4-2.9s1.4,1.7,1.4,2.9
	C79.5,17.7,78.9,18.3,78.1,18.3z M78.2,12.6c-1.1,0-1.9-0.9-1.9-1.9c0-1.1,0.9-1.9,1.9-1.9c1.1,0,1.9,0.9,1.9,1.9
	S79.2,12.6,78.2,12.6z"/>
<ellipse class="st0" cx="78.2" cy="11.5" rx="3" ry="1.4"/>
<g class="st1">
	<path class="st0" d="M96.8,8.4c0-0.2,0.1-0.5,0.3-0.7c0.2-0.3,0.4-0.4,0.5-0.4c0.1,0,0.2,0,0.3,0.1c0.6,0.3,1.1,0.5,1.6,0.5
		c0.8,0,1.3-0.3,1.3-1c0-0.3-0.1-0.5-0.4-0.7c-0.3-0.2-0.6-0.4-1-0.5s-0.8-0.3-1.1-0.5c-0.4-0.2-0.7-0.5-1-0.9S97,3.3,97,2.7
		s0.2-1.1,0.5-1.5C98.1,0.4,99,0,100.2,0c0.7,0,1.2,0.1,1.7,0.3c0.5,0.2,0.7,0.4,0.7,0.6c0,0.2-0.1,0.4-0.3,0.7s-0.3,0.4-0.5,0.4
		c0,0-0.1,0-0.2-0.1c-0.4-0.2-0.8-0.2-1.2-0.2s-0.8,0.1-1,0.2c-0.2,0.2-0.3,0.4-0.3,0.6s0.1,0.5,0.4,0.6c0.3,0.2,0.6,0.4,1,0.5
		c0.4,0.1,0.7,0.3,1.1,0.5s0.7,0.5,1,0.9c0.3,0.4,0.4,0.9,0.4,1.4s-0.1,1-0.3,1.4c-0.2,0.4-0.4,0.7-0.7,0.9
		c-0.6,0.4-1.3,0.6-2.2,0.6c-0.9,0-1.6-0.1-2.1-0.4S96.8,8.6,96.8,8.4z"/>
	<path class="st0" d="M104.1,9V0.5c0-0.3,0.3-0.4,0.8-0.4h0.6c0.4,0,0.7,0.1,0.9,0.4l3.5,5.4V0.5c0-0.3,0.3-0.4,0.8-0.4h0.4
		c0.5,0,0.8,0.1,0.8,0.4V9c0,0.3-0.3,0.4-0.8,0.4h-0.5c-0.4,0-0.7-0.1-0.9-0.4l-3.6-5.5V9c0,0.3-0.3,0.4-0.8,0.4h-0.4
		C104.4,9.5,104.1,9.3,104.1,9z"/>
	<path class="st0" d="M113.6,9V0.5c0-0.3,0.3-0.4,0.8-0.4h0.5c0.5,0,0.8,0.1,0.8,0.4V9c0,0.3-0.3,0.4-0.8,0.4h-0.5
		C113.9,9.5,113.6,9.3,113.6,9z"/>
	<path class="st0" d="M117.5,9V0.6c0-0.4,0.2-0.5,0.5-0.5h4.5c0.3,0,0.4,0.2,0.4,0.7v0.4c0,0.4-0.1,0.7-0.4,0.7h-2.9v1.9h2.8
		c0.3,0,0.4,0.2,0.4,0.7v0.4c0,0.4-0.1,0.7-0.4,0.7h-2.8V9c0,0.3-0.3,0.4-0.8,0.4h-0.5C117.7,9.5,117.5,9.3,117.5,9z"/>
	<path class="st0" d="M127.4,9V7.8c0-0.3,0.3-0.4,0.8-0.4h0.4c0.5,0,0.8,0.1,0.8,0.4V9c0,0.3-0.3,0.4-0.8,0.4h-0.4
		C127.7,9.5,127.4,9.3,127.4,9z M128.4,6.5c-0.3,0-0.4,0-0.5-0.1c-0.1-0.1-0.1-0.2-0.1-0.3V0.5c0-0.3,0.3-0.4,0.8-0.4h0.6
		c0.5,0,0.8,0.1,0.8,0.4c0,0.1-0.2,1.9-0.7,5.6c0,0.2-0.1,0.3-0.2,0.3s-0.3,0.1-0.5,0.1H128.4z"/>
</g>
</svg>
