<?xml version="1.0" encoding="utf-8"?>
<!-- Generator: Adobe Illustrator 23.0.3, SVG Export Plug-In . SVG Version: 6.00 Build 0)  -->
<svg version="1.1" baseProfile="tiny" id="Calque_1"
	 xmlns="http://www.w3.org/2000/svg" xmlns:xlink="http://www.w3.org/1999/xlink" x="0px" y="0px" viewBox="0 0 20.6 28"
	 xml:space="preserve">
<g>
	<linearGradient id="SVGID_1_" gradientUnits="userSpaceOnUse" x1="10.3174" y1="7.9044" x2="10.3174" y2="0">
		<stop  offset="0" style="stop-color:#F8B37A"/>
		<stop  offset="1" style="stop-color:#F39775"/>
	</linearGradient>
	<path fill="url(#SVGID_1_)" d="M17.2,3.6h-3V3c0-1.6-1.3-3-3-3H9.4c-1.6,0-3,1.3-3,3v0.6h-3C1.5,3.6,0,5.1,0,7v0.9h20.6V7
		C20.6,5.1,19.1,3.6,17.2,3.6z M12.6,3.6H8.1V3c0-0.7,0.6-1.3,1.3-1.3h1.9c0.7,0,1.3,0.6,1.3,1.3V3.6z"/>
	<linearGradient id="SVGID_2_" gradientUnits="userSpaceOnUse" x1="10.3174" y1="28" x2="10.3174" y2="9.5679">
		<stop  offset="0" style="stop-color:#F8B37A"/>
		<stop  offset="1" style="stop-color:#F39775"/>
	</linearGradient>
	<path fill="url(#SVGID_2_)" d="M1.2,26.3c0,0.9,0.8,1.7,1.7,1.7h14.9c0.9,0,1.7-0.8,1.7-1.7V9.6H1.2V26.3z M13.5,12.1h1.7v13.4
		h-1.7V12.1z M9.5,12.1h1.7v13.4H9.5V12.1z M5.5,12.1h1.7v13.4H5.5V12.1z"/>
</g>
</svg>
