<?xml version="1.0" encoding="utf-8"?>
<!-- Generator: Adobe Illustrator 23.0.3, SVG Export Plug-In . SVG Version: 6.00 Build 0)  -->
<svg version="1.1" id="Capa_1" xmlns="http://www.w3.org/2000/svg" xmlns:xlink="http://www.w3.org/1999/xlink" x="0px" y="0px"
	 viewBox="0 0 50 50" style="enable-background:new 0 0 50 50;" xml:space="preserve">
<style type="text/css">
	.st0{fill:#feb178;}
</style>
<g>
	<path class="st0" d="M49.5,23.7L42,16.2c-0.7-0.7-0.5-1.5,0.5-1.7c0,0,0.8-0.2,1.8-1.2c2.2-2.2,2.2-5.7,0-7.7
		c-2.2-2.2-5.7-2.2-7.7,0c-1,1-1.2,1.8-1.2,1.8c-0.2,1-1,1.2-1.7,0.5l-7.5-7.5c-0.7-0.7-1.8-0.7-2.5,0L16.2,8
		c-0.7,0.7-0.5,1.5,0.5,1.7c0,0,0.8,0.2,1.8,1.2c2.2,2.2,2.2,5.7,0,7.7c-2.2,2.2-5.7,2.2-7.7,0c-1-1-1.2-1.8-1.2-1.8
		c-0.2-1-1-1.2-1.7-0.5l-7.5,7.5c-0.7,0.7-0.7,1.8,0,2.5L8,33.8c0.7,0.7,0.5,1.5-0.5,1.7c0,0-0.8,0.2-1.8,1.2
		c-2.2,2.2-2.2,5.7,0,7.7c2.2,2.2,5.7,2.2,7.7,0c1-1,1.2-1.8,1.2-1.8c0.2-1,1-1.2,1.7-0.5l7.5,7.5c0.7,0.7,1.8,0.7,2.5,0l7.5-7.5
		c0.7-0.7,0.5-1.5-0.5-1.7c0,0-0.8-0.2-1.8-1.2c-2.2-2.2-2.2-5.7,0-7.7c2.2-2.2,5.7-2.2,7.7,0c1,1,1.2,1.8,1.2,1.8
		c0.2,1,1,1.2,1.7,0.5l7.5-7.5C50.2,25.6,50.2,24.6,49.5,23.7z"/>
</g>
</svg>
