<svg id="Calque_1" data-name="Calque 1" xmlns="http://www.w3.org/2000/svg" viewBox="0 0 65 65"><defs><style>.cls-1{fill:#9cb0d9;}</style></defs><title>Plan de travail 4</title><path class="cls-1" d="M32.72,5A27.5,27.5,0,1,1,5.22,32.5,27.48,27.48,0,0,1,32.72,5m0-5a32.5,32.5,0,1,0,32.5,32.5A32.56,32.56,0,0,0,32.72,0Z"/><path class="cls-1" d="M33,14.67A17.39,17.39,0,0,0,19.5,43c.34-3,3.46-5.57,7.6-6.83a8.2,8.2,0,0,0,5.73,2.36,8.6,8.6,0,0,0,5.65-2.2c4.3,1.27,7.26,4,7.34,7.17A17.32,17.32,0,0,0,33,14.67Zm0,21.84a5.52,5.52,0,0,1-3-.84,8,8,0,0,1-3.79-6.92c0-4.3,3-7.76,6.91-7.76S40,24.45,40,28.75a8.11,8.11,0,0,1-3.88,7A8.73,8.73,0,0,1,33,36.51Z"/></svg>