<svg id="Calque_1" data-name="Calque 1" xmlns="http://www.w3.org/2000/svg" xmlns:xlink="http://www.w3.org/1999/xlink" viewBox="0 0 65 65"><defs><style>.cls-1{fill:url(#Dégradé_sans_nom_2);}.cls-2{fill:url(#Dégradé_sans_nom_2-2);}</style><linearGradient id="Dégradé_sans_nom_2" x1="32.5" y1="65" x2="32.5" gradientUnits="userSpaceOnUse"><stop offset="0" stop-color="#f8b47b"/><stop offset="1" stop-color="#f39876"/></linearGradient><linearGradient id="Dégradé_sans_nom_2-2" x1="32.7" y1="107.46" x2="32.7" y2="136.3" gradientTransform="matrix(1, 0, 0, -1, 0, 151)" xlink:href="#Dégradé_sans_nom_2"/></defs><title>Plan de travail 1</title><path class="cls-1" d="M32.5,5A27.5,27.5,0,1,1,5,32.5,27.48,27.48,0,0,1,32.5,5m0-5A32.5,32.5,0,1,0,65,32.5,32.56,32.56,0,0,0,32.5,0Z"/><path class="cls-2" d="M32.78,14.67A17.39,17.39,0,0,0,19.29,43c.34-3,3.46-5.57,7.59-6.83a8.21,8.21,0,0,0,5.74,2.36,8.62,8.62,0,0,0,5.65-2.2c4.3,1.27,7.25,4,7.33,7.17A17.32,17.32,0,0,0,32.78,14.67Zm0,21.84a5.51,5.51,0,0,1-3-.84A8,8,0,0,1,26,28.75c0-4.3,3-7.76,6.92-7.76s6.91,3.46,6.91,7.76a8.11,8.11,0,0,1-3.88,7A8.63,8.63,0,0,1,32.78,36.51Z"/></svg>