<?xml version="1.0" encoding="utf-8"?>
<!-- Generator: Adobe Illustrator 23.0.3, SVG Export Plug-In . SVG Version: 6.00 Build 0)  -->
<svg version="1.1" id="Capa_1" xmlns="http://www.w3.org/2000/svg" xmlns:xlink="http://www.w3.org/1999/xlink" x="0px" y="0px"
	 viewBox="0 0 60 60.9" style="enable-background:new 0 0 60 60.9;" xml:space="preserve">
<style type="text/css">
	.st0{fill:url(#SVGID_1_);}
	.st1{fill:url(#SVGID_2_);}
</style>
<g>
	<g>
		<g>
			<linearGradient id="SVGID_1_" gradientUnits="userSpaceOnUse" x1="24.5353" y1="49.0706" x2="24.5353" y2="-9.094947e-13">
				<stop  offset="0" style="stop-color:#99AED7"/>
				<stop  offset="1" style="stop-color:#947AB5"/>
			</linearGradient>
			<path class="st0" d="M24.5,49.1c13.6,0,24.5-10.9,24.5-24.5S38.1,0,24.5,0S0,10.9,0,24.5S10.9,49.1,24.5,49.1z M34.3,24.5
				c0,5.4-4.5,9.8-9.8,9.8s-9.8-4.5-9.8-9.8s4.5-9.8,9.8-9.8S34.3,19.2,34.3,24.5z M4.9,25.7c-0.7,0-1.3-0.4-1.3-1.3
				c0-11.6,9.4-21,21-21c0.7,0,1.3,0.4,1.3,1.3S25.4,6,24.5,6C14.3,6,6,14.3,6,24.5C6,25.2,5.6,25.7,4.9,25.7z"/>
			<linearGradient id="SVGID_2_" gradientUnits="userSpaceOnUse" x1="31.6729" y1="60.8922" x2="31.6729" y2="14.9442">
				<stop  offset="0" style="stop-color:#99AED7"/>
				<stop  offset="1" style="stop-color:#947AB5"/>
			</linearGradient>
			<path class="st1" d="M60,19.6c0-2.5-2-4.7-4.7-4.7c-2.5,0-4.7,2-4.7,4.7c0,2.5,2,4.7,4.7,4.7h0.2c1.3,25.7-8.3,31-10.3,31.9V54
				H3.3v6.9h42.2v-2.2c0,0,14.5-2.9,12.7-35.5C59.3,22.5,60,21.2,60,19.6z"/>
		</g>
	</g>
</g>
</svg>
