<?xml version="1.0" encoding="utf-8"?>
<!-- Generator: Adobe Illustrator 23.0.3, SVG Export Plug-In . SVG Version: 6.00 Build 0)  -->
<svg version="1.1" id="Capa_1" xmlns="http://www.w3.org/2000/svg" xmlns:xlink="http://www.w3.org/1999/xlink" x="0px" y="0px"
	 viewBox="0 0 28 28" style="enable-background:new 0 0 28 28;" xml:space="preserve">
<style type="text/css">
	.st0{fill:url(#SVGID_1_);}
	.st1{fill:#FFFFFF;}
	.st2{opacity:0.7;fill:#FFFFFF;}
</style>
<linearGradient id="SVGID_1_" gradientUnits="userSpaceOnUse" x1="14" y1="-16.7244" x2="14" y2="11.2756" gradientTransform="matrix(1 0 0 -1 0 11.2756)">
	<stop  offset="0" style="stop-color:#F8B37A"/>
	<stop  offset="1" style="stop-color:#F39775"/>
</linearGradient>
<circle class="st0" cx="14" cy="14" r="14"/>
<g>
	<path class="st1" d="M17.8,8.6h-1.6V8.3c0-0.9-0.7-1.6-1.6-1.6h-1c-0.9,0-1.6,0.7-1.6,1.6v0.3h-1.6c-1.1,0-1.8,0.8-1.8,1.8V11h11.3
		v-0.5C19.7,9.5,18.8,8.6,17.8,8.6z M15.2,8.6h-2.5V8.3c0-0.4,0.3-0.7,0.7-0.7h1.1c0.4,0,0.7,0.3,0.7,0.7V8.6L15.2,8.6z"/>
	<path class="st1" d="M9,21.1c0,0.5,0.4,1,1,1h8.2c0.5,0,1-0.4,1-1V12H9C9,11.9,9,21.1,9,21.1z M15.7,13.3h1v7.3h-1
		C15.7,20.6,15.7,13.3,15.7,13.3z M13.6,13.3h1v7.3h-1V13.3z M11.4,13.3h1v7.3h-1V13.3z"/>
</g>
<rect x="-0.1" class="st2" width="28" height="28"/>
</svg>
