<svg id="Calque_1" data-name="Calque 1" xmlns="http://www.w3.org/2000/svg" xmlns:xlink="http://www.w3.org/1999/xlink" viewBox="0 0 65 65"><defs><style>.cls-1{fill:url(#Dégradé_sans_nom_2);}.cls-2{fill:url(#Dégradé_sans_nom_2-2);}</style><linearGradient id="Dégradé_sans_nom_2" x1="32.5" y1="65" x2="32.5" gradientUnits="userSpaceOnUse"><stop offset="0" stop-color="#f8b47b"/><stop offset="1" stop-color="#f39876"/></linearGradient><linearGradient id="Dégradé_sans_nom_2-2" x1="33.17" y1="50.09" x2="33.17" y2="16.75" xlink:href="#Dégradé_sans_nom_2"/></defs><title>Plan de travail 3 copie</title><path class="cls-1" d="M32.5,5A27.5,27.5,0,1,1,5,32.5,27.48,27.48,0,0,1,32.5,5m0-5A32.5,32.5,0,1,0,65,32.5,32.56,32.56,0,0,0,32.5,0Z"/><path class="cls-2" d="M49.45,32.56l-5-5c-.46-.46-.33-1,.33-1.12a3,3,0,0,0,1.2-.8,3.61,3.61,0,0,0-5.11-5.11,3.06,3.06,0,0,0-.8,1.2c-.13.66-.66.79-1.12.33l-5-5a1.17,1.17,0,0,0-1.66,0l-5,5c-.47.47-.33,1,.33,1.13a2.86,2.86,0,0,1,1.19.8,3.61,3.61,0,0,1-5.1,5.11A2.92,2.92,0,0,1,23,28c-.13-.66-.66-.79-1.13-.33l-5,5a1.14,1.14,0,0,0,0,1.65l5,5c.46.46.33,1-.33,1.13a2.94,2.94,0,0,0-1.2.79,3.61,3.61,0,0,0,5.11,5.11,3,3,0,0,0,.8-1.19c.13-.67.66-.8,1.12-.34l5,5a1.17,1.17,0,0,0,1.66,0l5-5c.47-.46.34-1-.33-1.12a3,3,0,0,1-1.19-.8,3.61,3.61,0,1,1,5.11-5.11,2.94,2.94,0,0,1,.79,1.2c.13.66.66.79,1.13.33l5-5A1.31,1.31,0,0,0,49.45,32.56Z"/></svg>