<?xml version="1.0" encoding="utf-8"?>
<!-- Generator: Adobe Illustrator 23.0.3, SVG Export Plug-In . SVG Version: 6.00 Build 0)  -->
<svg version="1.1" baseProfile="tiny" id="Capa_1" xmlns="http://www.w3.org/2000/svg" xmlns:xlink="http://www.w3.org/1999/xlink"
	 x="0px" y="0px" viewBox="0 0 85.1 65" xml:space="preserve">
<g>
	<linearGradient id="SVGID_1_" gradientUnits="userSpaceOnUse" x1="25.0776" y1="61.8062" x2="25.0776" y2="2.857143e-04">
		<stop  offset="0" style="stop-color:#FEB478"/>
		<stop  offset="0.9944" style="stop-color:#FF9973"/>
	</linearGradient>
	<path fill="url(#SVGID_1_)" d="M13,0C13,0,13,0,13,0c-0.8,0-1.6,0.3-2.1,0.9C10.3,1.5,10,2.2,10,3v45.7c0,1.7,1.4,3,3,3
		c7.1,0,19,1.5,27.1,10.1V14c0-0.6-0.1-1.1-0.4-1.5C33,1.7,20.1,0,13,0z"/>
	<linearGradient id="SVGID_2_" gradientUnits="userSpaceOnUse" x1="60.0026" y1="61.8059" x2="60.0026" y2="-9.094947e-13">
		<stop  offset="0" style="stop-color:#FEB478"/>
		<stop  offset="0.9944" style="stop-color:#FF9973"/>
	</linearGradient>
	<path fill="url(#SVGID_2_)" d="M75.1,48.7V3c0-0.8-0.3-1.6-0.9-2.2C73.6,0.3,72.9,0,72.1,0c0,0,0,0,0,0C65,0,52,1.7,45.3,12.5
		c-0.3,0.4-0.4,1-0.4,1.5v47.8c8.2-8.6,20.1-10,27.1-10.1C73.7,51.7,75.1,50.4,75.1,48.7z"/>
	<linearGradient id="SVGID_3_" gradientUnits="userSpaceOnUse" x1="67.1017" y1="65" x2="67.1017" y2="10.5284">
		<stop  offset="0" style="stop-color:#FEB478"/>
		<stop  offset="0.9944" style="stop-color:#FF9973"/>
	</linearGradient>
	<path fill="url(#SVGID_3_)" d="M82,10.5h-2.2v38.2c0,4.3-3.5,7.8-7.8,7.8c-6,0-15.9,1.2-22.9,7.8c12.1-3,24.9-1,32.2,0.6
		c0.9,0.2,1.9,0,2.6-0.6c0.7-0.6,1.1-1.4,1.1-2.4V13.6C85.1,11.9,83.7,10.5,82,10.5z"/>
	<linearGradient id="SVGID_4_" gradientUnits="userSpaceOnUse" x1="17.978" y1="64.9993" x2="17.978" y2="10.5284">
		<stop  offset="0" style="stop-color:#FEB478"/>
		<stop  offset="0.9944" style="stop-color:#FF9973"/>
	</linearGradient>
	<path fill="url(#SVGID_4_)" d="M5.3,48.7V10.5H3c-1.7,0-3,1.4-3,3V62c0,0.9,0.4,1.8,1.1,2.4c0.7,0.6,1.7,0.8,2.6,0.6
		c7.3-1.7,20.1-3.6,32.2-0.6c-7-6.6-16.9-7.8-22.9-7.8C8.7,56.5,5.3,53,5.3,48.7z"/>
</g>
</svg>
