<?xml version="1.0" encoding="utf-8"?>
<!-- Generator: Adobe Illustrator 23.0.3, SVG Export Plug-In . SVG Version: 6.00 Build 0)  -->
<svg version="1.1" id="Capa_1" xmlns="http://www.w3.org/2000/svg" xmlns:xlink="http://www.w3.org/1999/xlink" x="0px" y="0px"
	 viewBox="0 0 59.1 60" style="enable-background:new 0 0 59.1 60;" xml:space="preserve">
<style type="text/css">
	.st0{fill:url(#SVGID_1_);}
	.st1{fill:url(#SVGID_2_);}
	.st2{fill:url(#SVGID_3_);}
	.st3{fill:url(#SVGID_4_);}
	.st4{fill:url(#SVGID_5_);}
</style>
<g>
	<g>
		<g>
			<linearGradient id="SVGID_1_" gradientUnits="userSpaceOnUse" x1="27.0321" y1="28.125" x2="27.0321" y2="23.4375">
				<stop  offset="0" style="stop-color:#99AED7"/>
				<stop  offset="1" style="stop-color:#947AB5"/>
			</linearGradient>
			<path class="st0" d="M41.4,25.8c0-1.3-1-2.3-2.3-2.3H15c-1.3,0-2.3,1-2.3,2.3s1,2.3,2.3,2.3h24.1C40.4,28.1,41.4,27.1,41.4,25.8z
				"/>
			<linearGradient id="SVGID_2_" gradientUnits="userSpaceOnUse" x1="22.2925" y1="37.5" x2="22.2925" y2="32.8125">
				<stop  offset="0" style="stop-color:#99AED7"/>
				<stop  offset="1" style="stop-color:#947AB5"/>
			</linearGradient>
			<path class="st1" d="M15,32.8c-1.3,0-2.3,1-2.3,2.3s1,2.3,2.3,2.3h14.7c1.3,0,2.3-1,2.3-2.3s-1-2.3-2.3-2.3H15z"/>
			<linearGradient id="SVGID_3_" gradientUnits="userSpaceOnUse" x1="27.0386" y1="60" x2="27.0386" y2="0">
				<stop  offset="0" style="stop-color:#99AED7"/>
				<stop  offset="1" style="stop-color:#947AB5"/>
			</linearGradient>
			<path class="st2" d="M20.5,55.3h-7.8c-2.6,0-4.7-2.1-4.7-4.7V9.4c0-2.6,2.1-4.7,4.7-4.7h28.8c2.6,0,4.7,2.1,4.7,4.7v14.4
				c0,1.3,1,2.3,2.3,2.3s2.3-1,2.3-2.3V9.4c0-5.2-4.2-9.4-9.4-9.4H12.6C7.5,0,3.3,4.2,3.3,9.4v41.3c0,5.2,4.2,9.4,9.4,9.4h7.8
				c1.3,0,2.3-1,2.3-2.3S21.8,55.3,20.5,55.3z"/>
			<linearGradient id="SVGID_4_" gradientUnits="userSpaceOnUse" x1="42.8506" y1="60" x2="42.8506" y2="31.8778">
				<stop  offset="0" style="stop-color:#99AED7"/>
				<stop  offset="1" style="stop-color:#947AB5"/>
			</linearGradient>
			<path class="st3" d="M55,33.9c-2.7-2.7-7.2-2.7-9.9,0L32.2,46.8c-0.3,0.3-0.5,0.6-0.6,1L28.8,57c-0.2,0.8,0,1.7,0.6,2.3
				c0.4,0.5,1.1,0.7,1.7,0.7c0.2,0,0.4,0,0.6-0.1l9.5-2.6c0.4-0.1,0.7-0.3,1-0.6L55,43.9C57.7,41.1,57.7,36.7,55,33.9z M39.3,52.9
				l-4.8,1.3l1.4-4.6l8.7-8.7l3.3,3.3L39.3,52.9z M51.7,40.6L51.2,41l-3.3-3.3l0.5-0.5c0.9-0.9,2.4-0.9,3.3,0
				C52.6,38.2,52.6,39.6,51.7,40.6z"/>
			<linearGradient id="SVGID_5_" gradientUnits="userSpaceOnUse" x1="27.0321" y1="18.75" x2="27.0321" y2="14.0625">
				<stop  offset="0" style="stop-color:#99AED7"/>
				<stop  offset="1" style="stop-color:#947AB5"/>
			</linearGradient>
			<path class="st4" d="M39.1,14.1H15c-1.3,0-2.3,1-2.3,2.3s1,2.3,2.3,2.3h24.1c1.3,0,2.3-1,2.3-2.3S40.4,14.1,39.1,14.1z"/>
		</g>
	</g>
</g>
</svg>
