<svg id="Calque_1" data-name="Calque 1" xmlns="http://www.w3.org/2000/svg" viewBox="0 0 65 65"><defs><style>.cls-1{fill:#9cb0d9;}</style></defs><title>Plan de travail 3 copie 2</title><path class="cls-1" d="M32.5,5.34A27.5,27.5,0,1,1,5,32.84,27.48,27.48,0,0,1,32.5,5.34m0-5A32.5,32.5,0,1,0,65,32.84,32.56,32.56,0,0,0,32.5.34Z"/><path class="cls-1" d="M49.45,32.9l-5-5c-.46-.47-.33-1,.33-1.13A2.85,2.85,0,0,0,46,26a3.61,3.61,0,0,0-5.11-5.1,3,3,0,0,0-.8,1.19c-.13.66-.66.8-1.12.33l-5-5a1.15,1.15,0,0,0-1.66,0l-5,5c-.47.46-.33,1,.33,1.13a2.89,2.89,0,0,1,1.19.79,3.61,3.61,0,0,1-5.1,5.11,2.86,2.86,0,0,1-.8-1.19c-.13-.67-.66-.8-1.13-.34l-5,5a1.15,1.15,0,0,0,0,1.66l5,5c.46.47.33,1-.33,1.13a2.92,2.92,0,0,0-1.2.8,3.61,3.61,0,0,0,5.11,5.1,3,3,0,0,0,.8-1.19c.13-.66.66-.8,1.12-.33l5,5a1.15,1.15,0,0,0,1.66,0l5-5c.47-.47.34-1-.33-1.13a2.86,2.86,0,0,1-1.19-.8,3.61,3.61,0,1,1,5.11-5.1,2.89,2.89,0,0,1,.79,1.19c.13.66.66.8,1.13.33l5-5A1.32,1.32,0,0,0,49.45,32.9Z"/></svg>