<?xml version="1.0" encoding="utf-8"?>
<!-- Generator: Adobe Illustrator 23.0.3, SVG Export Plug-In . SVG Version: 6.00 Build 0)  -->
<svg version="1.1" baseProfile="tiny" id="Capa_1" xmlns="http://www.w3.org/2000/svg" xmlns:xlink="http://www.w3.org/1999/xlink"
	 x="0px" y="0px" viewBox="0 0 132.6 97.4" xml:space="preserve">
<linearGradient id="SVGID_1_" gradientUnits="userSpaceOnUse" x1="66.2815" y1="97.371" x2="66.2815" y2="-1.818989e-12">
	<stop  offset="0" style="stop-color:#F8B37A"/>
	<stop  offset="1" style="stop-color:#F39775"/>
</linearGradient>
<path fill="url(#SVGID_1_)" d="M130.5,18.2L118.2,4.3c-2.4-2.7-5.9-4.3-9.5-4.3c-3.5,0-6.8,1.4-9.2,4c-2.8-1-6-1.5-8-1.4
	C87.5,3,78.9,7,79.3,11c0.4,4,9.5,6.5,13.5,6.1c0.7-0.1,1.6-0.2,2.5-0.5L84.4,26c-2.3-4.5-7.1-7.7-12.5-7.7c-2.3,0-4.5,0.6-6.4,1.5
	c-2.5-3.8-6.9-6.4-11.8-6.4c-5,0-9.4,2.6-11.9,6.6c-1.8-0.8-3.7-1.3-5.8-1.3c-5.5,0-10.2,3.1-12.5,7.6c-1.5-0.6-3.2-0.9-4.9-0.9
	c-7.8,0-14.1,6.3-14.1,14.1c0,0.9,0.1,1.9,0.3,2.8C1.8,45.1,0,48.8,0,52.9c0,7.1,5.3,13,12.1,14c0.4,7.4,6.5,13.4,14.1,13.4
	c1.9,0,3.7-0.4,5.4-1.1L32.8,94c0.2,1.7,1.5,3.2,3.3,3.3c2,0.2,3.8-1.3,4-3.3l1.1-13c0.3-0.1,0.7-0.1,1-0.2
	c3.1,1.6,6.7,2.5,10.4,2.5c4.5,0,8.7-1.3,12.2-3.6c0.2,0.1,0.5,0.2,0.7,0.2l1.2,13.5c0.2,1.7,1.5,3.2,3.3,3.3c2,0.2,3.8-1.3,4-3.3
	l1.2-14.2c0.6-0.3,1.3-0.6,1.9-1c0.7,0.1,1.5,0.2,2.3,0.2c7.8,0,14.1-6.3,14.1-14.1c0-1.1-0.1-2.2-0.4-3.2
	c6.2-1.5,10.8-7.1,10.8-13.7c0-3-1-5.8-2.6-8.1l7.6-11.1l7,4.6c2.7,1.8,6.3,1.8,9,0l3.5-2.3c2-1.3,3.4-3.4,3.7-5.8
	C132.8,22.4,132.1,20,130.5,18.2z M51.2,65.3c0,1.7-0.5,2.5-1.5,2.5H30.3c-1,0-1.5-0.8-1.5-2.5v-0.8c0-1.7,0.5-2.5,1.5-2.5h6.6V39.5
	l-6.8,1c-0.6,0-1-0.5-1.2-1.4c-0.3-0.9-0.4-1.8-0.4-2.7c0-0.9,0.4-1.4,1.3-1.5l12.5-2.3c0.4,0,0.9,0.1,1.4,0.4
	c0.5,0.3,0.7,0.5,0.7,0.8v28.2h5.4c1,0,1.5,0.8,1.5,2.5V65.3z M77.9,65.3c0,1.7-0.5,2.5-1.5,2.5H56.5c-0.3,0-0.6-0.5-0.9-1.6
	c-0.3-1-0.5-1.9-0.5-2.5c0-0.6,0.1-1,0.1-1.1l12.7-15.5c1.3-1.6,1.9-3.1,1.9-4.5c0-1.5-0.4-2.5-1.3-3.3c-0.9-0.7-1.9-1-3-1
	s-2.1,0.2-3,0.5c-0.8,0.4-1.5,0.7-2.1,1.1c-0.6,0.4-0.9,0.5-1.1,0.5c-0.7,0-1.4-0.4-2-1.2c-0.6-0.8-0.9-1.6-0.9-2.3
	c0-1.4,1-2.5,3-3.4c2-0.8,4.3-1.3,6.9-1.3c3.4,0,6.1,0.9,8,2.7c1.9,1.8,2.9,4.2,2.9,7.1c0,2.9-1,5.6-3.1,8.1l-9.4,11.6h11.6
	c1,0,1.5,0.8,1.5,2.5V65.3z M113.1,14.1c-1.5,0.1-2.8-1.1-2.9-2.6c-0.1-1.5,1-2.8,2.6-2.9c1.5-0.1,2.8,1.1,2.9,2.6
	C115.8,12.7,114.6,14,113.1,14.1z"/>
</svg>
