<?xml version="1.0" encoding="utf-8"?>
<!-- Generator: Adobe Illustrator 23.0.3, SVG Export Plug-In . SVG Version: 6.00 Build 0)  -->
<svg version="1.1" id="Capa_1" xmlns="http://www.w3.org/2000/svg" xmlns:xlink="http://www.w3.org/1999/xlink" x="0px" y="0px"
	 viewBox="0 0 98.2 90" style="enable-background:new 0 0 98.2 90;" xml:space="preserve">
<style type="text/css">
	.st0{fill:#E4E5EF;}
</style>
<g>
	<path class="st0" d="M67.1,70.2l-15.6-7.8c-1.5-0.7-2.4-2.2-2.4-3.9V53c0.4-0.5,0.8-1,1.2-1.6c2-2.9,3.7-6.1,4.8-9.5
		c2.3-1.1,3.8-3.3,3.8-5.9v-6.5c0-1.6-0.6-3.1-1.6-4.3v-8.7c0.1-0.9,0.5-6.3-3.4-10.7C50.5,1.9,45,0,37.6,0S24.8,1.9,21.4,5.8
		c-3.9,4.4-3.5,9.8-3.4,10.7v8.7c-1,1.2-1.6,2.7-1.6,4.3V36c0,2,0.9,3.8,2.4,5.1c1.5,5.9,4.6,10.4,5.7,11.8v5.4c0,1.6-0.9,3-2.3,3.8
		l-14.6,8C2.9,72.7,0,77.7,0,83.1V90h75.3v-6.6C75.3,77.8,72.1,72.7,67.1,70.2z"/>
	<path class="st0" d="M90.8,72l-15.9-6.9c-0.4-0.2-0.8-0.6-1.2-1.3l10.7,0c0,0,0.6,0.1,1.6,0.1c1.8,0,4.3-0.2,6.5-1.2
		c1.3-0.6,2.3-1.7,2.7-3.1c0.4-1.4,0.1-2.9-0.7-4.1c-3.1-4.3-10.2-15.7-10.4-27.2c0-0.2-0.6-19.8-20-19.9c-1.9,0-3.8,0.3-5.5,0.7
		c1.3,3.4,1.2,6.5,1.1,7.5v7.7c1.1,1.5,1.6,3.3,1.6,5.1V36c0,3.1-1.6,6-4.3,7.6c-1.2,3.3-2.8,6.4-4.8,9.2c-0.2,0.3-0.5,0.7-0.7,1
		v4.7c0,0.7,0.4,1.4,1,1.7L68.2,68c5.9,2.9,9.5,8.8,9.5,15.4V90h20.5v-6C98.2,78.9,95.4,74.3,90.8,72z"/>
</g>
</svg>
