<?xml version="1.0" encoding="utf-8"?>
<!-- Generator: Adobe Illustrator 23.0.3, SVG Export Plug-In . SVG Version: 6.00 Build 0)  -->
<svg version="1.1" id="Capa_1" xmlns="http://www.w3.org/2000/svg" xmlns:xlink="http://www.w3.org/1999/xlink" x="0px" y="0px"
	 viewBox="0 0 50 50" style="enable-background:new 0 0 50 50;" xml:space="preserve">
<style type="text/css">
	.st0{fill:#feb178;}
</style>
<g>
	<g id="mood">
		<path class="st0" d="M25,0C11.3,0,0,11.3,0,25s11.3,25,25,25s25-11.3,25-25S38.8,0,25,0z M33.8,15c2,0,3.8,1.8,3.8,3.8
			s-1.8,3.8-3.8,3.8s-3.8-2-3.8-3.8S31.8,15,33.8,15z M16.3,15c2,0,3.8,1.8,3.8,3.8s-1.8,3.8-3.8,3.8s-3.8-1.8-3.8-3.8
			S14.3,15,16.3,15z M25,40c-6.5,0-12-4.3-14-10h28C37,35.7,31.5,40,25,40z"/>
	</g>
</g>
</svg>
