<?xml version="1.0" encoding="utf-8"?>
<!-- Generator: Adobe Illustrator 23.0.3, SVG Export Plug-In . SVG Version: 6.00 Build 0)  -->
<svg version="1.1" id="Capa_1" xmlns="http://www.w3.org/2000/svg" xmlns:xlink="http://www.w3.org/1999/xlink" x="0px" y="0px"
	 viewBox="0 0 62.8 50" style="enable-background:new 0 0 62.8 50;" xml:space="preserve">
<style type="text/css">
	.st0{fill:#feb178;}
</style>
<g>
	<g>
		<path class="st0" d="M31.4,10.1L9,28.6c0,0,0,0.1,0,0.1c0,0.1,0,0.1,0,0.1v18.7c0,0.7,0.2,1.3,0.7,1.8c0.5,0.5,1.1,0.7,1.8,0.7h15
			V35h10v15h15c0.7,0,1.3-0.2,1.8-0.7c0.5-0.5,0.7-1.1,0.7-1.8V28.8c0-0.1,0-0.2,0-0.2L31.4,10.1z"/>
		<path class="st0" d="M62.4,24.4l-8.5-7.1V1.4c0-0.4-0.1-0.7-0.4-0.9c-0.2-0.2-0.5-0.4-0.9-0.4h-7.5c-0.4,0-0.7,0.1-0.9,0.4
			C44,0.7,43.9,1,43.9,1.4V9l-9.5-8c-0.8-0.7-1.8-1-3-1c-1.1,0-2.1,0.3-3,1l-28,23.3C0.2,24.6,0,24.8,0,25.2c0,0.4,0.1,0.7,0.3,0.9
			L2.7,29c0.2,0.2,0.5,0.4,0.8,0.4c0.3,0,0.6-0.1,0.9-0.3l27-22.5l27,22.5c0.2,0.2,0.5,0.3,0.8,0.3h0.1c0.3-0.1,0.6-0.2,0.8-0.4
			l2.4-2.9c0.2-0.3,0.3-0.6,0.3-0.9C62.8,24.8,62.7,24.6,62.4,24.4z"/>
	</g>
</g>
</svg>
