<?xml version="1.0" encoding="utf-8"?>
<!-- Generator: Adobe Illustrator 23.0.3, SVG Export Plug-In . SVG Version: 6.00 Build 0)  -->
<svg version="1.1" baseProfile="tiny" id="Capa_1" xmlns="http://www.w3.org/2000/svg" xmlns:xlink="http://www.w3.org/1999/xlink"
	 x="0px" y="0px" viewBox="0 0 85.1 65" xml:space="preserve">
<g>
	<linearGradient id="XMLID_2_" gradientUnits="userSpaceOnUse" x1="42.2776" y1="65" x2="42.2776" y2="-9.094947e-13">
		<stop  offset="0" style="stop-color:#FEB478"/>
		<stop  offset="0.9944" style="stop-color:#FF9973"/>
	</linearGradient>
	<path id="XMLID_49_" fill="url(#XMLID_2_)" d="M49.7,56.8v1.9c0,1.5-1.1,2.8-2.6,3l-0.5,1.7c-0.3,0.9-1.1,1.6-2.1,1.6H40
		c-1,0-1.8-0.7-2.1-1.6l-0.5-1.7c-1.5-0.2-2.6-1.5-2.6-3v-1.9c0-1,0.8-1.8,1.8-1.8h11.2C48.9,55,49.7,55.8,49.7,56.8z M58.3,31.2
		c0,4.3-1.7,8.2-4.5,11.1c-2.1,2.2-3.5,5-3.9,8c-0.2,1.3-1.3,2.2-2.6,2.2h-9.9c-1.3,0-2.4-0.9-2.6-2.2c-0.5-3-1.8-5.8-4-8
		c-2.7-2.8-4.4-6.7-4.5-10.9c-0.1-8.9,7-16.1,15.9-16.2C51.1,15.1,58.3,22.3,58.3,31.2z M44.1,21.5c0-1-0.8-1.8-1.8-1.8
		c-6.4,0-11.6,5.2-11.6,11.6c0,1,0.8,1.8,1.8,1.8c1,0,1.8-0.8,1.8-1.8c0-4.4,3.6-7.9,7.9-7.9C43.3,23.3,44.1,22.5,44.1,21.5z
		 M42.3,9.9c1,0,1.8-0.8,1.8-1.8V1.8c0-1-0.8-1.8-1.8-1.8s-1.8,0.8-1.8,1.8v6.3C40.5,9.1,41.3,9.9,42.3,9.9z M21,31.2
		c0-1-0.8-1.8-1.8-1.8h-6.3c-1,0-1.8,0.8-1.8,1.8c0,1,0.8,1.8,1.8,1.8h6.3C20.2,33,21,32.2,21,31.2z M71.7,29.4h-6.3
		c-1,0-1.8,0.8-1.8,1.8c0,1,0.8,1.8,1.8,1.8h6.3c1,0,1.8-0.8,1.8-1.8C73.5,30.2,72.7,29.4,71.7,29.4z M24.7,46.2l-4.5,4.5
		c-0.7,0.7-0.7,1.8,0,2.6c0.3,0.3,0.8,0.5,1.3,0.5s0.9-0.2,1.3-0.5l4.5-4.5c0.7-0.7,0.7-1.8,0-2.6C26.5,45.5,25.4,45.5,24.7,46.2z
		 M58.6,16.7c0.5,0,0.9-0.2,1.3-0.5l4.5-4.5c0.7-0.7,0.7-1.8,0-2.6c-0.7-0.7-1.8-0.7-2.6,0l-4.5,4.5c-0.7,0.7-0.7,1.8,0,2.6
		C57.7,16.5,58.1,16.7,58.6,16.7z M24.7,16.2c0.3,0.3,0.8,0.5,1.3,0.5s0.9-0.2,1.3-0.5c0.7-0.7,0.7-1.8,0-2.6l-4.5-4.5
		c-0.7-0.7-1.8-0.7-2.6,0c-0.7,0.7-0.7,1.8,0,2.6L24.7,16.2z M59.9,46.2c-0.7-0.7-1.8-0.7-2.6,0c-0.7,0.7-0.7,1.8,0,2.6l4.5,4.5
		c0.3,0.3,0.8,0.5,1.3,0.5s0.9-0.2,1.3-0.5c0.7-0.7,0.7-1.8,0-2.6L59.9,46.2z"/>
</g>
</svg>
