<svg id="Calque_1" data-name="Calque 1" xmlns="http://www.w3.org/2000/svg" viewBox="0 0 65 65"><defs><style>.cls-1{fill:#9cb0d9;}</style></defs><title>Plan de travail 6</title><path class="cls-1" d="M32.61,5A27.5,27.5,0,1,1,5.11,32.5,27.48,27.48,0,0,1,32.61,5m0-5a32.5,32.5,0,1,0,32.5,32.5A32.56,32.56,0,0,0,32.61,0Z"/><path class="cls-1" d="M31.82,28.3a2.68,2.68,0,1,0-2.68-2.68A2.56,2.56,0,0,0,31.82,28.3Z"/><path class="cls-1" d="M23.08,46.24v3.61a1,1,0,0,0,1.05,1H38.22a1,1,0,0,0,1.05-1v-3.5h4a2.88,2.88,0,0,0,2.91-2.91v-5h2.33a1.17,1.17,0,0,0,1.05-1.74L47,31.91a7.05,7.05,0,0,1-.82-3.49h0A13.84,13.84,0,0,0,32.28,14.79,13.67,13.67,0,0,0,18.77,28.65a13.27,13.27,0,0,0,1.52,6.06A26.37,26.37,0,0,1,23.08,46.24ZM24.6,25.16a.64.64,0,0,1,.34-.59L26.46,24l.35-.35h0a.36.36,0,0,0,0-.46l-.58-1.52c-.12-.23,0-.46.11-.7l.7-.7a.55.55,0,0,1,.7-.11l1.51.46a.35.35,0,0,0,.47,0h0l.35-.35.58-1.51a.65.65,0,0,1,.58-.35h.94a.65.65,0,0,1,.58.35l.7,1.51.35.35h0a.34.34,0,0,0,.46,0L35.78,20a.79.79,0,0,1,.7.12l.69.7a.54.54,0,0,1,.12.7l-.58,1.51a.35.35,0,0,0,0,.47h0l.35.35,1.51.58a.64.64,0,0,1,.35.58V26a.63.63,0,0,1-.35.58l-1.51.7c-.12.12-.24.24-.24.35h0a.38.38,0,0,0,0,.47l.59,1.51a.78.78,0,0,1-.12.7l-.7.7a.56.56,0,0,1-.7.12l-1.51-.59a.38.38,0,0,0-.47,0h0l-.35.35L33,32.38a.65.65,0,0,1-.58.35h-.93a.65.65,0,0,1-.59-.35l-.58-1.52L30,30.51h0a.36.36,0,0,0-.46,0L28,31.1a.79.79,0,0,1-.7-.12l-.93-.58a.55.55,0,0,1-.11-.7l.58-1.51a.38.38,0,0,0,0-.47h0l-.35-.35-1.52-.58a.64.64,0,0,1-.34-.58V25.16Z"/></svg>