<svg id="Calque_1" data-name="Calque 1" xmlns="http://www.w3.org/2000/svg" xmlns:xlink="http://www.w3.org/1999/xlink" viewBox="0 0 65 65"><defs><style>.cls-1{fill:url(#Dégradé_sans_nom_2);}.cls-2{fill:url(#Dégradé_sans_nom_2-2);}</style><linearGradient id="Dégradé_sans_nom_2" x1="32.5" y1="65" x2="32.5" gradientUnits="userSpaceOnUse"><stop offset="0" stop-color="#f8b47b"/><stop offset="1" stop-color="#f39876"/></linearGradient><linearGradient id="Dégradé_sans_nom_2-2" x1="32.78" y1="45.21" x2="32.78" y2="20.59" xlink:href="#Dégradé_sans_nom_2"/></defs><title>Plan de travail 2</title><path class="cls-1" d="M32.5,5A27.5,27.5,0,1,1,5,32.5,27.48,27.48,0,0,1,32.5,5m0-5A32.5,32.5,0,1,0,65,32.5,32.56,32.56,0,0,0,32.5,0Z"/><path class="cls-2" d="M51.57,31.47a23.16,23.16,0,0,0-8-7.87,20.86,20.86,0,0,0-10.65-3,21.74,21.74,0,0,0-10.72,2.94,24.92,24.92,0,0,0-8.11,7.94,2.67,2.67,0,0,0-.39,1.43,2.35,2.35,0,0,0,.39,1.43,23,23,0,0,0,8,7.86,20.53,20.53,0,0,0,10.64,3,21.26,21.26,0,0,0,10.65-2.94,22.29,22.29,0,0,0,8-7.86,2.6,2.6,0,0,0,.4-1.43A1.73,1.73,0,0,0,51.57,31.47ZM28.21,25.59a6.2,6.2,0,0,1,4.61-2,.87.87,0,0,1,.72.32.86.86,0,0,1,.31.72.84.84,0,0,1-.31.71.87.87,0,0,1-.72.32A4.18,4.18,0,0,0,29.64,27a4.69,4.69,0,0,0-1.35,3.18.86.86,0,0,1-.31.71.87.87,0,0,1-.72.32,1.1,1.1,0,0,1-1-1A7.34,7.34,0,0,1,28.21,25.59ZM42.12,40a17.34,17.34,0,0,1-9.22,2.54A17.11,17.11,0,0,1,23.69,40a22,22,0,0,1-7.07-7,20.1,20.1,0,0,1,8.1-7.47,10,10,0,0,0-1.35,4.85,9.16,9.16,0,0,0,2.78,6.75,9.58,9.58,0,0,0,13.5,0,9.29,9.29,0,0,0,2.78-6.75,8.91,8.91,0,0,0-1.35-4.85A21.44,21.44,0,0,1,49.19,33,22.05,22.05,0,0,1,42.12,40Z"/></svg>