<?xml version="1.0" encoding="utf-8"?>
<!-- Generator: Adobe Illustrator 23.0.3, SVG Export Plug-In . SVG Version: 6.00 Build 0)  -->
<svg version="1.1" id="Calque_1" xmlns="http://www.w3.org/2000/svg" xmlns:xlink="http://www.w3.org/1999/xlink" x="0px" y="0px"
	 viewBox="0 0 110 110" enable-background="new 0 0 110 110" xml:space="preserve">
<linearGradient id="SVGID_1_" gradientUnits="userSpaceOnUse" x1="55.0993" y1="128.7244" x2="55.0993" y2="18.7244" gradientTransform="matrix(1 0 0 1 0 -18.7244)">
	<stop  offset="0" style="stop-color:#99AED7"/>
	<stop  offset="1" style="stop-color:#947AB5"/>
</linearGradient>
<circle fill="url(#SVGID_1_)" cx="55.1" cy="55" r="55"/>
<polygon fill="#FFFFFF" points="23.7,31 23.7,67.9 88.7,67.9 88.7,31 "/>
<polygon fill="#9686BF" points="51.8,47.8 48.5,47.8 48.1,49.6 50.8,49.6 50.8,52.4 47.5,52.4 46.6,56 43.5,56 44.4,52.4 43.1,52.4 
	42.4,56 39.3,56 40.2,52.4 37.9,52.4 37.9,49.6 40.8,49.6 41.4,47.8 38.9,47.8 38.9,45.1 42,45.1 42.9,41.4 46,41.4 45.1,45.1 
	46.2,45.1 47.1,41.4 50.2,41.4 49.3,45.1 51.8,45.1 "/>
<rect x="53.9" y="52.1" fill="#9686BF" width="3.8" height="3.7"/>
<rect x="53.9" y="41.2" fill="#9686BF" width="3.8" height="8.4"/>
<path fill="#9686BF" d="M69.5,55.8l-0.8-0.8c-0.6,0.4-1.2,0.6-1.8,0.8s-1.3,0.3-1.9,0.3c-0.9,0-1.5-0.1-2.2-0.4s-1.2-0.6-1.5-1
	s-0.8-0.9-1-1.4C60,52.8,60,52.1,60,51.6c0-0.9,0.1-1.5,0.6-2.2c0.4-0.6,0.9-1.2,1.4-1.5c-0.4-0.5-0.8-1-0.9-1.4s-0.3-0.9-0.3-1.4
	c0-0.6,0.1-1.2,0.3-1.5c0.3-0.5,0.5-0.9,0.9-1.2s0.8-0.5,1.4-0.8c0.5-0.1,1.2-0.3,1.7-0.3s1,0,1.5,0.1s1,0.3,1.4,0.6
	c0.4,0.3,0.8,0.6,1,1.2c0.3,0.4,0.4,1,0.4,1.5c0,0.8-0.1,1.4-0.5,1.9c-0.4,0.6-0.8,1.2-1.4,1.5l1.7,1.8c0.1-0.4,0.3-0.8,0.4-1.3
	c0-0.4,0.1-0.9,0.1-1.4h3.1c0,1-0.1,1.9-0.4,2.8c-0.3,0.9-0.5,1.5-0.9,2.3l3.2,3.5L69.5,55.8L69.5,55.8z"/>
<g>
	<g>
		<polygon fill="#FFFFFF" points="75.8,73 63.2,73 64,71.6 42.3,71.6 38.4,79.2 47.9,79.2 38,96 		"/>
	</g>
</g>
</svg>
