<?xml version="1.0" encoding="utf-8"?>
<!-- Generator: Adobe Illustrator 23.0.3, SVG Export Plug-In . SVG Version: 6.00 Build 0)  -->
<svg version="1.1" baseProfile="tiny" id="Calque_1"
	 xmlns="http://www.w3.org/2000/svg" xmlns:xlink="http://www.w3.org/1999/xlink" x="0px" y="0px" viewBox="0 0 28 28"
	 xml:space="preserve">
<linearGradient id="SVGID_1_" gradientUnits="userSpaceOnUse" x1="14" y1="28" x2="14" y2="-9.094947e-13">
	<stop  offset="0" style="stop-color:#F8B47B"/>
	<stop  offset="1" style="stop-color:#F39876"/>
</linearGradient>
<path fill="url(#SVGID_1_)" d="M14,0C6.3,0,0,6.3,0,14s6.3,14,14,14s14-6.3,14-14S21.7,0,14,0z M20.7,15.1h-5.7V21
	c0,0.6-0.5,1.1-1.1,1.1s-1.1-0.5-1.1-1.1v-5.9H7.3c-0.6,0-1.1-0.5-1.1-1.1s0.5-1.1,1.1-1.1h5.7V7.5c0-0.6,0.5-1.1,1.1-1.1
	s1.1,0.5,1.1,1.1v5.4h5.7c0.6,0,1.1,0.5,1.1,1.1S21.3,15.1,20.7,15.1z"/>
</svg>
