<?xml version="1.0" encoding="utf-8"?>
<!-- Generator: Adobe Illustrator 23.0.3, SVG Export Plug-In . SVG Version: 6.00 Build 0)  -->
<svg version="1.1" baseProfile="tiny" id="Capa_1" xmlns="http://www.w3.org/2000/svg" xmlns:xlink="http://www.w3.org/1999/xlink"
	 x="0px" y="0px" viewBox="0 0 83.8 65" xml:space="preserve">
<g>
	<g>
		<linearGradient id="SVGID_1_" gradientUnits="userSpaceOnUse" x1="41.8896" y1="65" x2="41.8896" y2="12.6795">
			<stop  offset="0" style="stop-color:#FEB478"/>
			<stop  offset="0.9944" style="stop-color:#FF9973"/>
		</linearGradient>
		<path fill="url(#SVGID_1_)" d="M26.2,65c5.9,0,11.3-2,15.7-5.3C46.3,63,51.7,65,57.6,65C72,65,83.8,53.3,83.8,38.8
			c0-14.4-11.7-26.2-26.2-26.2c-5.9,0-11.3,2-15.7,5.3c-4.4-3.3-9.8-5.3-15.7-5.3C11.7,12.7,0,24.4,0,38.8C0,53.3,11.7,65,26.2,65z
			 M41.9,28.3c2,3,3.2,6.7,3.2,10.6s-1.2,7.5-3.2,10.6c-2-3-3.2-6.7-3.2-10.6S39.9,31.3,41.9,28.3z M57.6,19.9c10.5,0,19,8.5,19,19
			c0,10.5-8.5,19-19,19c-3.9,0-7.6-1.2-10.6-3.2c3.3-4.4,5.3-9.8,5.3-15.7s-2-11.3-5.3-15.7C50.1,21.1,53.7,19.9,57.6,19.9z
			 M26.2,19.9c3.9,0,7.6,1.2,10.6,3.2c-3.3,4.4-5.3,9.8-5.3,15.7s2,11.3,5.3,15.7c-3,2-6.7,3.2-10.6,3.2c-10.5,0-19-8.5-19-19
			C7.2,28.4,15.7,19.9,26.2,19.9z"/>
		<linearGradient id="SVGID_2_" gradientUnits="userSpaceOnUse" x1="41.3694" y1="14.8977" x2="41.3694" y2="-9.094947e-13">
			<stop  offset="0" style="stop-color:#FEB478"/>
			<stop  offset="0.9944" style="stop-color:#FF9973"/>
		</linearGradient>
		<path fill="url(#SVGID_2_)" d="M41.4,2.3L41.4,2.3c0,0-4-4.4-7.5-1.2s-0.4,10.5,7.5,13.7l0,0c7.9-3.2,10.9-10.5,7.5-13.7
			C45.4-2,41.4,2.3,41.4,2.3z"/>
	</g>
</g>
</svg>
