<?xml version="1.0" encoding="utf-8"?>
<!-- Generator: Adobe Illustrator 23.0.3, SVG Export Plug-In . SVG Version: 6.00 Build 0)  -->
<svg version="1.1" id="Capa_1" xmlns="http://www.w3.org/2000/svg" xmlns:xlink="http://www.w3.org/1999/xlink" x="0px" y="0px"
	 viewBox="0 0 28 28" style="enable-background:new 0 0 28 28;" xml:space="preserve">
<style type="text/css">
	.st0{fill:url(#SVGID_1_);}
	.st1{fill:#FFFFFF;}
	.st2{opacity:0.7;fill:#FFFFFF;}
</style>
<linearGradient id="SVGID_1_" gradientUnits="userSpaceOnUse" x1="14" y1="-16.7244" x2="14" y2="11.2756" gradientTransform="matrix(1 0 0 -1 0 11.2756)">
	<stop  offset="0" style="stop-color:#F6AF7A"/>
	<stop  offset="1" style="stop-color:#EC8875"/>
</linearGradient>
<circle class="st0" cx="14" cy="14" r="14"/>
<g>
	<path class="st1" d="M13.3,15.8h-0.4c-0.2,0-0.4-0.2-0.4-0.4c0-0.1,0.1-0.2,0.1-0.2c0.3-0.3,0.5-0.6,0.7-1c0.1,0,0.1,0.1,0.1,0.1
		c0.3,0,0.6-0.6,0.6-0.9c0-0.4-0.1-0.7-0.3-0.7c-0.1,0-0.1,0-0.1,0c0-1.1-0.3-2.4-1.9-2.4c-1.7,0-1.9,1.3-1.9,2.4H9.7
		c-0.3,0-0.3,0.3-0.3,0.7s0.3,0.9,0.6,0.9c0.1,0,0.1,0,0.1,0c0.2,0.4,0.4,0.7,0.7,1c0.1,0.1,0.1,0.2,0.1,0.2c0,0.2-0.2,0.4-0.4,0.4
		H10c-1,0-1.8,0.8-1.8,1.8v0.5c0,0.3,0.3,0.6,0.6,0.6h6c0.3,0,0.6-0.3,0.6-0.6v-0.5C15.1,16.6,14.3,15.8,13.3,15.8z"/>
	<path class="st1" d="M19.3,10.9h-5c0.2,0.3,0.2,0.7,0.3,1.2c0.1,0.1,0.2,0.2,0.3,0.3h4.4c0.2,0,0.4-0.2,0.4-0.4v-0.6
		C19.8,11.1,19.6,10.9,19.3,10.9z"/>
	<path class="st1" d="M19.8,14.7V14c0-0.2-0.2-0.4-0.4-0.4H15c-0.1,0.4-0.4,0.9-0.8,1.1c0,0,0,0.1-0.1,0.1v0.4h5.2
		C19.6,15.1,19.8,14.9,19.8,14.7z"/>
	<path class="st1" d="M19.3,16.4H16c0.2,0.3,0.3,0.8,0.3,1.2v0.3h3c0.2,0,0.4-0.2,0.4-0.4v-0.7C19.8,16.5,19.6,16.4,19.3,16.4z"/>
	<path class="st1" d="M20.8,6.7H7c-1.4,0-2.6,1.2-2.6,2.6v10.2C4.4,20.9,5.6,22,7,22h13.8c1.4,0,2.6-1.2,2.6-2.6V9.3
		C23.4,7.9,22.2,6.7,20.8,6.7z M22.2,19.5c0,0.7-0.6,1.3-1.3,1.3H7c-0.7,0-1.3-0.6-1.3-1.3V9.3C5.6,8.6,6.2,8,7,8h13.8
		c0.7,0,1.3,0.6,1.3,1.3L22.2,19.5L22.2,19.5z"/>
</g>
<rect x="-0.1" class="st2" width="28" height="28"/>
</svg>
