<?xml version="1.0" encoding="utf-8"?>
<!-- Generator: Adobe Illustrator 23.0.3, SVG Export Plug-In . SVG Version: 6.00 Build 0)  -->
<svg version="1.1" id="Calque_1" xmlns="http://www.w3.org/2000/svg" xmlns:xlink="http://www.w3.org/1999/xlink" x="0px" y="0px"
	 viewBox="0 0 50.8 65" style="enable-background:new 0 0 50.8 65;" xml:space="preserve">
<style type="text/css">
	.st0{fill:#FFFFFF;}
</style>
<path class="st0" d="M45.7,19.3h-6.1c-0.8,0-1.7-0.6-2-1.5l-1.6-4.7c-0.3-0.8-1.2-1.5-2-1.5H16.8c-0.8,0-1.7,0.6-2,1.5l-1.6,4.7
	c-0.3,0.8-1.2,1.5-2,1.5H5.1c-2.8,0-5.1,2.3-5.1,5.1v22.9c0,2.8,2.3,5.1,5.1,5.1h40.7c2.8,0,5.1-2.3,5.1-5.1V24.4
	C50.8,21.6,48.5,19.3,45.7,19.3z M25.4,46.5c-6.6,0-12-5.4-12-12s5.4-12,12-12s12,5.4,12,12S32,46.5,25.4,46.5z M43.5,28
	c-1,0-1.8-0.8-1.8-1.8c0-1,0.8-1.8,1.8-1.8c1,0,1.8,0.8,1.8,1.8C45.2,27.2,44.5,28,43.5,28z"/>
<g>
	<path class="st0" d="M19.7,31.7c-0.4-0.4-0.3-1,0.4-1.7l0.1-0.1c0.7-0.7,1.3-0.9,1.7-0.4l3.3,3.3l3.3-3.3c0.4-0.4,1-0.3,1.7,0.4
		l0.3,0.3c0.7,0.7,0.9,1.3,0.4,1.7l-3.3,3.3l3.3,3.3c0.4,0.4,0.3,1-0.4,1.7l-0.1,0.1c-0.7,0.7-1.3,0.9-1.7,0.4l-3.3-3.3l-3.3,3.3
		c-0.4,0.4-1,0.3-1.7-0.4l-0.3-0.3c-0.7-0.7-0.9-1.3-0.4-1.7l3.3-3.3L19.7,31.7z"/>
</g>
</svg>
